<?xml version="1.0" encoding="UTF-8" standalone="no"?>
<!-- Created with Inkscape (http://www.inkscape.org/) -->

<svg
   xmlns:dc="http://purl.org/dc/elements/1.1/"
   xmlns:cc="http://creativecommons.org/ns#"
   xmlns:rdf="http://www.w3.org/1999/02/22-rdf-syntax-ns#"
   xmlns:svg="http://www.w3.org/2000/svg"
   xmlns="http://www.w3.org/2000/svg"
   xmlns:xlink="http://www.w3.org/1999/xlink"
   xmlns:sodipodi="http://sodipodi.sourceforge.net/DTD/sodipodi-0.dtd"
   xmlns:inkscape="http://www.inkscape.org/namespaces/inkscape"
   width="61.96875"
   height="18.28125"
   id="svg2"
   sodipodi:version="0.32"
   inkscape:version="0.48.1 r9760"
   version="1.0"
   sodipodi:docname="Gaian logo tag.svg"
   inkscape:output_extension="org.inkscape.output.svg.inkscape"
   inkscape:export-filename="/home/snowdrop/Skrivbord/tracks.png"
   inkscape:export-xdpi="276.36304"
   inkscape:export-ydpi="276.36304"
   style="display:inline;enable-background:new">
  <sodipodi:namedview
     id="base"
     pagecolor="#e4eca3"
     bordercolor="#e60000"
     borderopacity="1"
     gridtolerance="10000"
     guidetolerance="10"
     objecttolerance="10"
     inkscape:pageopacity="0"
     inkscape:pageshadow="2"
     inkscape:zoom="8.0000004"
     inkscape:cx="81.705446"
     inkscape:cy="16.282412"
     inkscape:document-units="mm"
     inkscape:current-layer="layer2"
     showgrid="false"
     inkscape:window-width="1440"
     inkscape:window-height="845"
     inkscape:window-x="0"
     inkscape:window-y="24"
     showguides="true"
     inkscape:guide-bbox="true"
     inkscape:snap-global="true"
     inkscape:window-maximized="1"
     units="mm"
     inkscape:showpageshadow="true"
     borderlayer="true"
     width="65mm"
     inkscape:snap-grids="false"
     inkscape:snap-to-guides="false"
     inkscape:snap-bbox="true"
     inkscape:bbox-paths="false"
     inkscape:snap-center="true"
     inkscape:snap-nodes="false"
     inkscape:snap-bbox-edge-midpoints="false"
     inkscape:bbox-nodes="false"
     inkscape:snap-bbox-midpoints="false"
     fit-margin-top="0"
     fit-margin-left="0"
     fit-margin-right="0"
     fit-margin-bottom="0">
    <inkscape:grid
       id="grid8916"
       type="xygrid"
       empspacing="5"
       visible="true"
       enabled="true"
       snapvisiblegridlinesonly="true"
       units="mm"
       originx="0mm"
       originy="0mm"
       spacingx="73mm"
       color="#9f0a00"
       opacity="1"
       empcolor="#ff7d00"
       empopacity="1"
       dotted="false"
       spacingy="98mm" />
    <sodipodi:guide
       id="guide10188"
       position="1311.8989,84.936921"
       orientation="1,0" />
    <sodipodi:guide
       orientation="1,0"
       position="1202.0113,-119.26408"
       id="guide26243" />
    <sodipodi:guide
       orientation="1,0"
       position="1177.9531,-745.03636"
       id="guide42537" />
    <sodipodi:guide
       orientation="0,1"
       position="4680.453,-890.03635"
       id="guide42541" />
    <sodipodi:guide
       orientation="1,0"
       position="1374.1243,62.309504"
       id="guide43625" />
    <sodipodi:guide
       orientation="1,0"
       position="1501.953,-1191.0363"
       id="guide43686" />
    <sodipodi:guide
       orientation="0,1"
       position="4556.0467,-797.30463"
       id="guide9454" />
    <sodipodi:guide
       orientation="1,0"
       position="2483.8703,-199.0923"
       id="guide15510" />
    <sodipodi:guide
       orientation="1,0"
       position="2412.0989,1210.8786"
       id="guide11592" />
    <sodipodi:guide
       orientation="0,1"
       position="1726.9531,692.96362"
       id="guide14876" />
    <sodipodi:guide
       orientation="1,0"
       position="2018.9475,-677.09646"
       id="guide14151" />
    <sodipodi:guide
       orientation="0,1"
       position="1190.0113,-247.26409"
       id="guide14298" />
    <sodipodi:guide
       orientation="0,1"
       position="4171.1593,1281.3428"
       id="guide14391" />
    <sodipodi:guide
       orientation="0,1"
       position="1457.9531,-1163.0364"
       id="guide16141" />
    <sodipodi:guide
       orientation="0,1"
       position="5565.9531,-959.03639"
       id="guide15870" />
    <sodipodi:guide
       orientation="1,0"
       position="-351.48866,276.23591"
       id="guide14650" />
    <inkscape:grid
       type="xygrid"
       id="grid12445"
       empspacing="5"
       visible="true"
       enabled="false"
       snapvisiblegridlinesonly="true" />
    <sodipodi:guide
       orientation="0,1"
       position="182.20753,430.71214"
       id="guide12594" />
    <sodipodi:guide
       orientation="0,1"
       position="576.01132,19.735912"
       id="guide16369" />
    <sodipodi:guide
       orientation="0,1"
       position="1215.7324,1067.4618"
       id="guide15358" />
    <sodipodi:guide
       orientation="0,1"
       position="464.13633,-241.38908"
       id="guide24511" />
    <sodipodi:guide
       orientation="0,1"
       position="466.63633,-207.63908"
       id="guide24513" />
    <sodipodi:guide
       orientation="1,0"
       position="-343.48865,404.9859"
       id="guide24546" />
    <sodipodi:guide
       orientation="0,1"
       position="189.51134,378.86091"
       id="guide14165" />
    <sodipodi:guide
       orientation="0,1"
       position="-61.98866,311.73591"
       id="guide14733" />
    <sodipodi:guide
       orientation="0,1"
       position="103.51134,252.73591"
       id="guide14747" />
    <sodipodi:guide
       orientation="0,1"
       position="-51.98866,130.48591"
       id="guide14749" />
    <sodipodi:guide
       orientation="0,1"
       position="414.76134,140.48591"
       id="guide14751" />
    <sodipodi:guide
       orientation="0,1"
       position="159.31495,265.6027"
       id="guide14970" />
    <sodipodi:guide
       orientation="0,1"
       position="-7.9886602,447.73591"
       id="guide32390" />
  </sodipodi:namedview>
  <defs
     id="defs4">
    <filter
       id="filter8350"
       inkscape:collect="always"
       color-interpolation-filters="sRGB">
      <feBlend
         id="feBlend8352"
         in2="BackgroundImage"
         mode="multiply"
         inkscape:collect="always" />
    </filter>
    <filter
       id="filter12309"
       inkscape:collect="always"
       color-interpolation-filters="sRGB">
      <feBlend
         id="feBlend12311"
         in2="BackgroundImage"
         mode="screen"
         inkscape:collect="always" />
    </filter>
    <filter
       id="filter4308"
       inkscape:collect="always"
       color-interpolation-filters="sRGB">
      <feBlend
         id="feBlend4310"
         in2="BackgroundImage"
         mode="screen"
         inkscape:collect="always" />
    </filter>
    <filter
       id="filter4314"
       inkscape:collect="always"
       color-interpolation-filters="sRGB">
      <feBlend
         id="feBlend4316"
         in2="BackgroundImage"
         mode="darken"
         inkscape:collect="always" />
    </filter>
    <filter
       id="filter4366"
       inkscape:collect="always"
       color-interpolation-filters="sRGB">
      <feBlend
         id="feBlend4368"
         in2="BackgroundImage"
         mode="screen"
         inkscape:collect="always" />
    </filter>
    <filter
       id="filter4380"
       inkscape:collect="always"
       color-interpolation-filters="sRGB">
      <feBlend
         id="feBlend4382"
         in2="BackgroundImage"
         mode="darken"
         inkscape:collect="always" />
    </filter>
    <filter
       id="filter4492"
       inkscape:collect="always"
       color-interpolation-filters="sRGB">
      <feBlend
         id="feBlend4494"
         in2="BackgroundImage"
         mode="darken"
         inkscape:collect="always" />
    </filter>
    <filter
       id="filter7776"
       inkscape:collect="always"
       color-interpolation-filters="sRGB">
      <feBlend
         id="feBlend7778"
         in2="BackgroundImage"
         mode="multiply"
         inkscape:collect="always" />
    </filter>
    <filter
       id="filter10630"
       inkscape:collect="always"
       color-interpolation-filters="sRGB">
      <feBlend
         id="feBlend10632"
         in2="BackgroundImage"
         mode="multiply"
         inkscape:collect="always" />
    </filter>
    <linearGradient
       id="linearGradient9585-8-0-2-0-5-1">
      <stop
         id="stop9587-1-90-3-9-7-4"
         offset="0"
         style="stop-color:#959739;stop-opacity:0.37391305;" />
      <stop
         id="stop9589-9-1-9-3-4-6"
         offset="0.5"
         style="stop-color:#a07a05;stop-opacity:1;" />
      <stop
         style="stop-color:#59460d;stop-opacity:1;"
         offset="1"
         id="stop9591-6-0-8-8-9-1" />
    </linearGradient>
    <linearGradient
       id="linearGradient9585-8-0-2-0-5-7">
      <stop
         id="stop9587-1-90-3-9-7-7"
         offset="0"
         style="stop-color:#959739;stop-opacity:0.37391305;" />
      <stop
         id="stop9589-9-1-9-3-4-3"
         offset="0.5"
         style="stop-color:#a07a05;stop-opacity:1;" />
      <stop
         style="stop-color:#59460d;stop-opacity:1;"
         offset="1"
         id="stop9591-6-0-8-8-9-3" />
    </linearGradient>
    <filter
       color-interpolation-filters="sRGB"
       inkscape:collect="always"
       id="filter15326-7-6">
      <feGaussianBlur
         inkscape:collect="always"
         stdDeviation="0.98218801"
         id="feGaussianBlur15328-3-1" />
    </filter>
    <linearGradient
       id="linearGradient6207-8-5-25">
      <stop
         style="stop-color:#434815;stop-opacity:1;"
         offset="0"
         id="stop6209-1-4-8" />
      <stop
         style="stop-color:#141106;stop-opacity:1;"
         offset="1"
         id="stop6211-5-4-6" />
    </linearGradient>
    <linearGradient
       id="linearGradient14044-6-2">
      <stop
         id="stop14046-7-03"
         offset="0"
         style="stop-color:#816f29;stop-opacity:1" />
      <stop
         id="stop14048-2-1"
         offset="1"
         style="stop-color:#282213;stop-opacity:1;" />
    </linearGradient>
    <linearGradient
       id="linearGradient9585-8-63-7">
      <stop
         id="stop9587-1-91-4"
         offset="0"
         style="stop-color:#959739;stop-opacity:0.37391305;" />
      <stop
         id="stop9589-9-04-1"
         offset="0.5"
         style="stop-color:#a07a05;stop-opacity:1;" />
      <stop
         style="stop-color:#59460d;stop-opacity:1;"
         offset="1"
         id="stop9591-6-11-3" />
    </linearGradient>
    <radialGradient
       inkscape:collect="always"
       xlink:href="#linearGradient6207-8-5-25"
       id="radialGradient16560"
       gradientUnits="userSpaceOnUse"
       gradientTransform="matrix(1,0,0,0.63226821,0,9.8287606)"
       cx="32.459934"
       cy="26.728069"
       fx="32.459934"
       fy="26.728069"
       r="27.129927" />
    <linearGradient
       inkscape:collect="always"
       xlink:href="#linearGradient14044-6-2"
       id="linearGradient16562"
       gradientUnits="userSpaceOnUse"
       x1="5.8300099"
       y1="26.728069"
       x2="59.089863"
       y2="26.728069" />
    <radialGradient
       inkscape:collect="always"
       xlink:href="#linearGradient6207-8-5-25"
       id="radialGradient16564"
       gradientUnits="userSpaceOnUse"
       gradientTransform="matrix(1,0,0,0.63226821,0,9.8287606)"
       cx="32.459934"
       cy="26.728069"
       fx="32.459934"
       fy="26.728069"
       r="27.129927" />
    <linearGradient
       inkscape:collect="always"
       xlink:href="#linearGradient14044-6-2"
       id="linearGradient16566"
       gradientUnits="userSpaceOnUse"
       x1="5.8300099"
       y1="26.728069"
       x2="59.089863"
       y2="26.728069" />
    <filter
       id="filter3733"
       inkscape:label="Drop shadow"
       width="1.5"
       height="1.5"
       x="-0.25"
       y="-0.25"
       color-interpolation-filters="sRGB">
      <feGaussianBlur
         id="feGaussianBlur3735"
         in="SourceAlpha"
         stdDeviation="0.8"
         result="blur" />
      <feColorMatrix
         id="feColorMatrix3737"
         result="bluralpha"
         type="matrix"
         values="1 0 0 0 0 0 1 0 0 0 0 0 1 0 0 0 0 0 0.5 0 " />
      <feOffset
         id="feOffset3739"
         in="bluralpha"
         dx="1.3"
         dy="1"
         result="offsetBlur" />
      <feMerge
         id="feMerge3741">
        <feMergeNode
           id="feMergeNode3743"
           in="offsetBlur" />
        <feMergeNode
           id="feMergeNode3745"
           in="SourceGraphic" />
      </feMerge>
    </filter>
    <filter
       id="filter3747"
       inkscape:label="Drop shadow"
       width="1.5"
       height="1.5"
       x="-0.25"
       y="-0.25"
       color-interpolation-filters="sRGB">
      <feGaussianBlur
         id="feGaussianBlur3749"
         in="SourceAlpha"
         stdDeviation="0.8"
         result="blur" />
      <feColorMatrix
         id="feColorMatrix3751"
         result="bluralpha"
         type="matrix"
         values="1 0 0 0 0 0 1 0 0 0 0 0 1 0 0 0 0 0 0.5 0 " />
      <feOffset
         id="feOffset3753"
         in="bluralpha"
         dx="1.3"
         dy="1"
         result="offsetBlur" />
      <feMerge
         id="feMerge3755">
        <feMergeNode
           id="feMergeNode3757"
           in="offsetBlur" />
        <feMergeNode
           id="feMergeNode3759"
           in="SourceGraphic" />
      </feMerge>
    </filter>
    <filter
       id="filter3733-8"
       inkscape:label="Drop shadow"
       width="1.5"
       height="1.5"
       x="-0.25"
       y="-0.25"
       color-interpolation-filters="sRGB">
      <feGaussianBlur
         id="feGaussianBlur3735-9"
         in="SourceAlpha"
         stdDeviation="0.8"
         result="blur" />
      <feColorMatrix
         id="feColorMatrix3737-2"
         result="bluralpha"
         type="matrix"
         values="1 0 0 0 0 0 1 0 0 0 0 0 1 0 0 0 0 0 0.5 0 " />
      <feOffset
         id="feOffset3739-2"
         in="bluralpha"
         dx="1.3"
         dy="1"
         result="offsetBlur" />
      <feMerge
         id="feMerge3741-3">
        <feMergeNode
           id="feMergeNode3743-1"
           in="offsetBlur" />
        <feMergeNode
           id="feMergeNode3745-8"
           in="SourceGraphic" />
      </feMerge>
    </filter>
    <filter
       id="filter3486"
       inkscape:label="Drop shadow"
       width="1.5"
       height="1.5"
       x="-0.25"
       y="-0.25"
       color-interpolation-filters="sRGB">
      <feGaussianBlur
         id="feGaussianBlur3488"
         in="SourceAlpha"
         stdDeviation="0.8"
         result="blur" />
      <feColorMatrix
         id="feColorMatrix3490"
         result="bluralpha"
         type="matrix"
         values="1 0 0 0 0 0 1 0 0 0 0 0 1 0 0 0 0 0 0.5 0 " />
      <feOffset
         id="feOffset3492"
         in="bluralpha"
         dx="1.3"
         dy="1"
         result="offsetBlur" />
      <feMerge
         id="feMerge3494">
        <feMergeNode
           id="feMergeNode3496"
           in="offsetBlur" />
        <feMergeNode
           id="feMergeNode3498"
           in="SourceGraphic" />
      </feMerge>
    </filter>
    <filter
       id="filter3500"
       inkscape:label="Drop shadow"
       width="1.5"
       height="1.5"
       x="-0.25"
       y="-0.25"
       color-interpolation-filters="sRGB">
      <feGaussianBlur
         id="feGaussianBlur3502"
         in="SourceAlpha"
         stdDeviation="0.8"
         result="blur" />
      <feColorMatrix
         id="feColorMatrix3504"
         result="bluralpha"
         type="matrix"
         values="1 0 0 0 0 0 1 0 0 0 0 0 1 0 0 0 0 0 0.5 0 " />
      <feOffset
         id="feOffset3506"
         in="bluralpha"
         dx="1.3"
         dy="1"
         result="offsetBlur" />
      <feMerge
         id="feMerge3508">
        <feMergeNode
           id="feMergeNode3510"
           in="offsetBlur" />
        <feMergeNode
           id="feMergeNode3512"
           in="SourceGraphic" />
      </feMerge>
    </filter>
    <filter
       id="filter3747-3"
       inkscape:label="Drop shadow"
       width="1.5"
       height="1.5"
       x="-0.25"
       y="-0.25"
       color-interpolation-filters="sRGB">
      <feGaussianBlur
         id="feGaussianBlur3749-4"
         in="SourceAlpha"
         stdDeviation="0.8"
         result="blur" />
      <feColorMatrix
         id="feColorMatrix3751-2"
         result="bluralpha"
         type="matrix"
         values="1 0 0 0 0 0 1 0 0 0 0 0 1 0 0 0 0 0 0.5 0 " />
      <feOffset
         id="feOffset3753-2"
         in="bluralpha"
         dx="1.3"
         dy="1"
         result="offsetBlur" />
      <feMerge
         id="feMerge3755-4">
        <feMergeNode
           id="feMergeNode3757-5"
           in="offsetBlur" />
        <feMergeNode
           id="feMergeNode3759-1"
           in="SourceGraphic" />
      </feMerge>
    </filter>
  </defs>
  <metadata
     id="metadata7">
    <rdf:RDF>
      <cc:Work
         rdf:about="">
        <dc:format>image/svg+xml</dc:format>
        <dc:type
           rdf:resource="http://purl.org/dc/dcmitype/StillImage" />
        <dc:title></dc:title>
      </cc:Work>
    </rdf:RDF>
  </metadata>
  <flowRoot
     transform="translate(-50.046875,-492.54687)"
     style="font-size:40px;font-style:normal;font-weight:normal;fill:#000000;fill-opacity:1;stroke:none;font-family:Bitstream Vera Sans"
     id="flowRoot8767"
     xml:space="preserve"><flowRegion
       id="flowRegion8769"><rect
         y="-34.135529"
         x="1550"
         height="522"
         width="474"
         id="rect8771" /></flowRegion><flowPara
       id="flowPara8773" /></flowRoot>  <g
     inkscape:groupmode="layer"
     id="layer1"
     inkscape:label="Logotypes"
     sodipodi:insensitive="true">
    <g
       id="g3419"
       style="display:inline;filter:url(#filter3747-3);enable-background:new"
       transform="translate(-29.433912,-519.71548)">
      <path
         sodipodi:nodetypes="ssssccs"
         inkscape:connector-curvature="0"
         id="path12005"
         d="m 97.335296,496.03317 c 2.161447,0 3.923664,1.56152 3.923664,3.52777 l 0,4.21852 c 0,1.96625 -1.762217,3.55245 -3.923664,3.55245 l -36.511238,0 0,-11.29874 z"
         style="color:#000000;fill:#2b1100;fill-opacity:1;stroke:#ffffff;stroke-width:0.88582677;stroke-linecap:butt;stroke-linejoin:miter;stroke-miterlimit:4;stroke-opacity:1;stroke-dasharray:none;stroke-dashoffset:0;marker:none;visibility:visible;display:inline;overflow:visible;enable-background:accumulate" />
      <g
         id="g13061">
        <g
           id="text12037"
           style="font-size:6.44730759px;font-style:normal;font-variant:normal;font-weight:bold;font-stretch:normal;line-height:125%;letter-spacing:0px;word-spacing:0px;fill:#f9f9f9;fill-opacity:0.92941176;stroke:none;font-family:Ubuntu;-inkscape-font-specification:Sans Bold">
          <path
             id="path22119"
             style="fill:#f9f9f9;font-family:ChunkFive;-inkscape-font-specification:ChunkFive Bold"
             d="m 71.504911,501.10129 c -0.02579,-0.19342 -0.135394,-0.96065 -0.206314,-1.27012 l -0.16763,-0.94131 0.373944,0 0,-0.83815 -2.127612,0 0,0.83815 0.36105,0 0.851044,3.66852 1.495776,0 0.393285,-1.54735 c 0.04513,-0.18698 0.128947,-0.59316 0.154736,-0.78658 l 0.02579,0 c 0.03224,0.19987 0.103157,0.58026 0.161183,0.79947 l 0.386838,1.53446 1.528012,0 0.960649,-3.66852 0.354602,0 0,-0.83815 -1.84393,0 0,0.83815 0.354602,0 -0.219209,0.97999 c -0.05803,0.27079 -0.16763,0.94131 -0.193419,1.23144 l -0.03224,0 c -0.03224,-0.32237 -0.103157,-0.85105 -0.193419,-1.27012 l -0.40618,-1.77946 -1.34104,0 -0.322366,1.45065 c -0.128946,0.61249 -0.303023,1.4184 -0.315918,1.59893 l -0.03224,0"
             inkscape:connector-curvature="0" />
          <path
             id="path22121"
             style="fill:#f9f9f9;font-family:ChunkFive;-inkscape-font-specification:ChunkFive Bold"
             d="m 80.412672,498.05171 -4.326143,0 0,1.6763 0.947754,0 0,-0.82525 0.554468,0 0,2.79813 -0.528679,0 0,0.85749 2.398399,0 0,-0.85749 -0.535127,0 0,-2.79813 0.541574,0 0,0.82525 0.947754,0 0,-1.6763"
             inkscape:connector-curvature="0" />
          <path
             id="path22123"
             style="fill:#f9f9f9;font-family:ChunkFive;-inkscape-font-specification:ChunkFive Bold"
             d="m 81.01338,500.3534 c 0.244998,-0.13539 0.580258,-0.29658 0.960649,-0.29658 0.348155,0 0.612494,0.0709 0.612494,0.36105 l 0,0.22566 c -0.03224,-0.0387 -0.257892,-0.22566 -0.638283,-0.22566 -0.728545,0 -1.34104,0.45776 -1.34104,1.18631 0,0.74789 0.657626,1.0767 1.27012,1.0767 0.232102,0 0.631836,-0.0838 0.870386,-0.41263 l 0.154736,0.29013 1.379723,0 0,-0.82526 -0.386838,0 0,-1.25722 c 0,-1.03802 -0.973544,-1.32815 -1.74722,-1.32815 -0.593152,0 -1.147621,0.30303 -1.405514,0.45776 l 0.270787,0.74789 m 1.573143,1.27657 c -0.05803,0.0967 -0.219208,0.21276 -0.412627,0.21276 -0.193419,0 -0.341708,-0.1225 -0.341708,-0.30302 0,-0.19987 0.116052,-0.34171 0.373944,-0.34171 0.270787,0 0.36105,0.15473 0.380391,0.18697 l 0,0.245"
             inkscape:connector-curvature="0" />
          <path
             id="path22125"
             style="fill:#f9f9f9;font-family:ChunkFive;-inkscape-font-specification:ChunkFive Bold"
             d="m 87.645141,500.79182 0,-1.45709 -0.760782,0 -0.109604,0.30947 c -0.109605,-0.12895 -0.367497,-0.3675 -0.805914,-0.3675 -0.825254,0 -1.586038,0.50934 -1.586038,1.65051 0,1.14762 0.825257,1.72143 1.77301,1.72143 0.696309,0 1.276567,-0.32881 1.57959,-0.65762 l -0.567363,-0.65763 c -0.212761,0.2321 -0.438417,0.37395 -0.780124,0.3675 -0.412627,-0.006 -0.664073,-0.34171 -0.664073,-0.76078 0,-0.41908 0.186973,-0.82526 0.567363,-0.82526 0.296576,0 0.393286,0.3675 0.406181,0.67697 l 0.947754,0"
             inkscape:connector-curvature="0" />
          <path
             id="path22127"
             style="fill:#f9f9f9;font-family:ChunkFive;-inkscape-font-specification:ChunkFive Bold"
             d="m 87.898198,499.33473 0,0.83815 0.348155,0 0,1.14762 c 0.01934,0.82525 0.05158,1.35393 1.018675,1.35393 0.148288,0 0.586705,-0.0451 0.780124,-0.1225 l 0,-0.82525 c -0.122499,0.0516 -0.322366,0.1096 -0.40618,0.1096 -0.251445,0 -0.206314,-0.29657 -0.206314,-0.51578 l 0,-1.14762 0.612494,0 0,-0.83815 -0.612494,0 0,-0.97355 -1.186305,0.38039 0,0.59316 -0.348155,0"
             inkscape:connector-curvature="0" />
          <path
             id="path22129"
             style="fill:#f9f9f9;font-family:ChunkFive;-inkscape-font-specification:ChunkFive Bold"
             d="m 90.485382,498.39342 c 0,0.30947 0.290129,0.65118 0.696309,0.65118 0.457759,0 0.709204,-0.29658 0.709204,-0.65118 0,-0.29658 -0.26434,-0.65763 -0.709204,-0.65763 -0.451311,0 -0.696309,0.36105 -0.696309,0.65763 m 1.624722,4.16496 0,-0.8446 -0.309471,0 0,-2.37905 -1.495775,0 0,0.83815 0.270786,0 0,1.5409 -0.270786,0 0,0.8446 1.805246,0"
             inkscape:connector-curvature="0" />
          <path
             id="path22131"
             style="fill:#f9f9f9;font-family:ChunkFive;-inkscape-font-specification:ChunkFive Bold"
             d="m 95.540574,500.79182 0,-1.45709 -0.760782,0 -0.109604,0.30947 c -0.109604,-0.12895 -0.367497,-0.3675 -0.805913,-0.3675 -0.825255,0 -1.586038,0.50934 -1.586038,1.65051 0,1.14762 0.825256,1.72143 1.773009,1.72143 0.696309,0 1.276568,-0.32881 1.579591,-0.65762 l -0.567363,-0.65763 c -0.212761,0.2321 -0.438418,0.37395 -0.780124,0.3675 -0.412628,-0.006 -0.664073,-0.34171 -0.664073,-0.76078 0,-0.41908 0.186972,-0.82526 0.567363,-0.82526 0.296576,0 0.393286,0.3675 0.40618,0.67697 l 0.947754,0"
             inkscape:connector-curvature="0" />
          <path
             id="path22133"
             style="fill:#f9f9f9;font-family:ChunkFive;-inkscape-font-specification:ChunkFive Bold"
             d="m 95.793632,502.55838 0.805913,0 0.05803,-0.39329 c 0.154735,0.245 0.522233,0.47066 0.986438,0.47066 0.625388,0 1.199199,-0.36105 1.199199,-0.9671 0,-0.67696 -0.548021,-0.86394 -1.038016,-1.03157 -0.412627,-0.14184 -0.793019,-0.21921 -0.793019,-0.39973 0,-0.16118 0.116052,-0.2321 0.251445,-0.2321 0.322365,0 0.657625,0.21921 0.657625,0.48999 l 0.83815,0 0,-1.16051 -0.793018,0 -0.05158,0.42552 c -0.135393,-0.27724 -0.522232,-0.50289 -0.960649,-0.50289 -0.457758,0 -1.134726,0.27723 -1.134726,0.93486 0,0.60604 0.419076,0.87683 0.857492,1.03157 0.464206,0.16118 0.947754,0.19342 0.947754,0.38684 0,0.18052 -0.154735,0.2192 -0.283681,0.2192 -0.193419,0 -0.683415,-0.0903 -0.683415,-0.43197 l -0.863939,0 0,1.16052"
             inkscape:connector-curvature="0" />
        </g>
        <g
           id="text12043"
           style="font-size:3.53634882px;font-style:normal;font-variant:normal;font-weight:bold;font-stretch:normal;line-height:125%;letter-spacing:0px;word-spacing:0px;fill:#ff6600;fill-opacity:0.92941176;stroke:none;font-family:Ubuntu;-inkscape-font-specification:Sans Bold">
          <path
             id="path22136"
             style="fill:#ff6600;font-family:ChunkFive;-inkscape-font-specification:ChunkFive Bold"
             d="m 92.003996,504.59984 c 0,0.18743 0.166208,0.38193 0.399607,0.38193 0.265226,0 0.40668,-0.16975 0.40668,-0.38193 0,-0.18035 -0.148527,-0.40314 -0.40668,-0.40314 -0.258153,0 -0.399607,0.22279 -0.399607,0.40314"
             inkscape:connector-curvature="0" />
          <path
             id="path22138"
             style="fill:#ff6600;font-family:ChunkFive;-inkscape-font-specification:ChunkFive Bold"
             d="m 93.888207,505.01359 c 0.537524,0 0.972496,-0.33595 0.965423,-0.92298 -0.01061,-0.59057 -0.424362,-0.92653 -0.983105,-0.9336 -0.488016,0 -0.965423,0.32888 -0.96896,0.91945 -0.0071,0.62593 0.480944,0.93713 0.986642,0.93713 m 0,-0.45265 c -0.148527,0 -0.26169,-0.19096 -0.26169,-0.48094 0,-0.25816 0.10609,-0.46326 0.244008,-0.46326 0.166208,0.004 0.258153,0.20864 0.258153,0.47387 0,0.26522 -0.08841,0.47033 -0.240471,0.47033"
             inkscape:connector-curvature="0" />
          <path
             id="path22140"
             style="fill:#ff6600;font-family:ChunkFive;-inkscape-font-specification:ChunkFive Bold"
             d="m 95.982499,504.96762 0,-0.46326 -0.176818,0 0,-0.36424 c 0,-0.3112 0.180354,-0.39254 0.498626,-0.39254 l 0,-0.63654 c -0.364244,0 -0.45619,0.14499 -0.548134,0.31473 l -0.106091,-0.22632 -0.664834,0 0,0.45972 0.152063,0 0,0.84519 -0.155599,0 0,0.46326 1.000787,0"
             inkscape:connector-curvature="0" />
          <path
             id="path22142"
             style="fill:#ff6600;font-family:ChunkFive;-inkscape-font-specification:ChunkFive Bold"
             d="m 96.442445,505.38137 c 0.134381,0.12378 0.420826,0.30767 0.809824,0.3112 0.742632,-0.004 1.103341,-0.38546 1.103341,-0.97249 l 0,-1.05737 0.212181,0 0,-0.46326 -0.841651,0 -0.07073,0.10962 c -0.07073,-0.0707 -0.219254,-0.14499 -0.374853,-0.14499 -0.583497,0 -0.887624,0.36071 -0.887624,0.90884 0,0.44558 0.240472,0.88409 0.848724,0.88409 0.226326,0 0.364244,-0.13084 0.413753,-0.1945 l 0,0.12024 c 0,0.14852 -0.09195,0.33242 -0.410217,0.33242 -0.268762,0 -0.533989,-0.1556 -0.615325,-0.22633 l -0.187426,0.39253 m 0.703733,-1.31552 c 0,-0.26876 0.102555,-0.44204 0.251081,-0.44204 0.134381,0 0.254617,0.18389 0.254617,0.42436 0.01415,0.27937 -0.113163,0.45265 -0.251081,0.45265 -0.155599,0 -0.254617,-0.22279 -0.254617,-0.43497"
             inkscape:connector-curvature="0" />
        </g>
      </g>
    </g>
    <g
       style="display:inline;enable-background:new"
       id="g3763"
       transform="translate(-29.433912,-519.71548)">
      <path
         style="color:#000000;fill:#2b1100;fill-opacity:1;stroke:#ffffff;stroke-width:0.88582677;stroke-linecap:butt;stroke-linejoin:miter;stroke-miterlimit:4;stroke-opacity:1;stroke-dasharray:none;stroke-dashoffset:0;marker:none;visibility:visible;display:inline;overflow:visible;filter:url(#filter3733-8);enable-background:accumulate"
         d="m 64.747724,516.2741 c -2.161447,0 -3.923664,1.56152 -3.923664,3.52777 l 0,4.21852 c 0,1.96625 1.762217,3.55245 3.923664,3.55245 l 36.511236,0 0,-11.29874 z"
         id="path3369"
         inkscape:connector-curvature="0"
         sodipodi:nodetypes="ssssccs" />
      <g
         transform="translate(-5.4800773,20.240931)"
         id="g3371">
        <g
           style="font-size:6.44730759px;font-style:normal;font-variant:normal;font-weight:bold;font-stretch:normal;line-height:125%;letter-spacing:0px;word-spacing:0px;fill:#f9f9f9;fill-opacity:0.92941176;stroke:none;font-family:Ubuntu;-inkscape-font-specification:Sans Bold"
           id="g3373">
          <path
             inkscape:connector-curvature="0"
             d="m 71.504911,501.10129 c -0.02579,-0.19342 -0.135394,-0.96065 -0.206314,-1.27012 l -0.16763,-0.94131 0.373944,0 0,-0.83815 -2.127612,0 0,0.83815 0.36105,0 0.851044,3.66852 1.495776,0 0.393285,-1.54735 c 0.04513,-0.18698 0.128947,-0.59316 0.154736,-0.78658 l 0.02579,0 c 0.03224,0.19987 0.103157,0.58026 0.161183,0.79947 l 0.386838,1.53446 1.528012,0 0.960649,-3.66852 0.354602,0 0,-0.83815 -1.84393,0 0,0.83815 0.354602,0 -0.219209,0.97999 c -0.05803,0.27079 -0.16763,0.94131 -0.193419,1.23144 l -0.03224,0 c -0.03224,-0.32237 -0.103157,-0.85105 -0.193419,-1.27012 l -0.40618,-1.77946 -1.34104,0 -0.322366,1.45065 c -0.128946,0.61249 -0.303023,1.4184 -0.315918,1.59893 l -0.03224,0"
             style="fill:#f9f9f9;font-family:ChunkFive;-inkscape-font-specification:ChunkFive Bold"
             id="path3375" />
          <path
             inkscape:connector-curvature="0"
             d="m 80.412672,498.05171 -4.326143,0 0,1.6763 0.947754,0 0,-0.82525 0.554468,0 0,2.79813 -0.528679,0 0,0.85749 2.398399,0 0,-0.85749 -0.535127,0 0,-2.79813 0.541574,0 0,0.82525 0.947754,0 0,-1.6763"
             style="fill:#f9f9f9;font-family:ChunkFive;-inkscape-font-specification:ChunkFive Bold"
             id="path3377" />
          <path
             inkscape:connector-curvature="0"
             d="m 81.01338,500.3534 c 0.244998,-0.13539 0.580258,-0.29658 0.960649,-0.29658 0.348155,0 0.612494,0.0709 0.612494,0.36105 l 0,0.22566 c -0.03224,-0.0387 -0.257892,-0.22566 -0.638283,-0.22566 -0.728545,0 -1.34104,0.45776 -1.34104,1.18631 0,0.74789 0.657626,1.0767 1.27012,1.0767 0.232102,0 0.631836,-0.0838 0.870386,-0.41263 l 0.154736,0.29013 1.379723,0 0,-0.82526 -0.386838,0 0,-1.25722 c 0,-1.03802 -0.973544,-1.32815 -1.74722,-1.32815 -0.593152,0 -1.147621,0.30303 -1.405514,0.45776 l 0.270787,0.74789 m 1.573143,1.27657 c -0.05803,0.0967 -0.219208,0.21276 -0.412627,0.21276 -0.193419,0 -0.341708,-0.1225 -0.341708,-0.30302 0,-0.19987 0.116052,-0.34171 0.373944,-0.34171 0.270787,0 0.36105,0.15473 0.380391,0.18697 l 0,0.245"
             style="fill:#f9f9f9;font-family:ChunkFive;-inkscape-font-specification:ChunkFive Bold"
             id="path3379" />
          <path
             inkscape:connector-curvature="0"
             d="m 87.645141,500.79182 0,-1.45709 -0.760782,0 -0.109604,0.30947 c -0.109605,-0.12895 -0.367497,-0.3675 -0.805914,-0.3675 -0.825254,0 -1.586038,0.50934 -1.586038,1.65051 0,1.14762 0.825257,1.72143 1.77301,1.72143 0.696309,0 1.276567,-0.32881 1.57959,-0.65762 l -0.567363,-0.65763 c -0.212761,0.2321 -0.438417,0.37395 -0.780124,0.3675 -0.412627,-0.006 -0.664073,-0.34171 -0.664073,-0.76078 0,-0.41908 0.186973,-0.82526 0.567363,-0.82526 0.296576,0 0.393286,0.3675 0.406181,0.67697 l 0.947754,0"
             style="fill:#f9f9f9;font-family:ChunkFive;-inkscape-font-specification:ChunkFive Bold"
             id="path3381" />
          <path
             inkscape:connector-curvature="0"
             d="m 87.898198,499.33473 0,0.83815 0.348155,0 0,1.14762 c 0.01934,0.82525 0.05158,1.35393 1.018675,1.35393 0.148288,0 0.586705,-0.0451 0.780124,-0.1225 l 0,-0.82525 c -0.122499,0.0516 -0.322366,0.1096 -0.40618,0.1096 -0.251445,0 -0.206314,-0.29657 -0.206314,-0.51578 l 0,-1.14762 0.612494,0 0,-0.83815 -0.612494,0 0,-0.97355 -1.186305,0.38039 0,0.59316 -0.348155,0"
             style="fill:#f9f9f9;font-family:ChunkFive;-inkscape-font-specification:ChunkFive Bold"
             id="path3383" />
          <path
             inkscape:connector-curvature="0"
             d="m 90.485382,498.39342 c 0,0.30947 0.290129,0.65118 0.696309,0.65118 0.457759,0 0.709204,-0.29658 0.709204,-0.65118 0,-0.29658 -0.26434,-0.65763 -0.709204,-0.65763 -0.451311,0 -0.696309,0.36105 -0.696309,0.65763 m 1.624722,4.16496 0,-0.8446 -0.309471,0 0,-2.37905 -1.495775,0 0,0.83815 0.270786,0 0,1.5409 -0.270786,0 0,0.8446 1.805246,0"
             style="fill:#f9f9f9;font-family:ChunkFive;-inkscape-font-specification:ChunkFive Bold"
             id="path3385" />
          <path
             inkscape:connector-curvature="0"
             d="m 95.540574,500.79182 0,-1.45709 -0.760782,0 -0.109604,0.30947 c -0.109604,-0.12895 -0.367497,-0.3675 -0.805913,-0.3675 -0.825255,0 -1.586038,0.50934 -1.586038,1.65051 0,1.14762 0.825256,1.72143 1.773009,1.72143 0.696309,0 1.276568,-0.32881 1.579591,-0.65762 l -0.567363,-0.65763 c -0.212761,0.2321 -0.438418,0.37395 -0.780124,0.3675 -0.412628,-0.006 -0.664073,-0.34171 -0.664073,-0.76078 0,-0.41908 0.186972,-0.82526 0.567363,-0.82526 0.296576,0 0.393286,0.3675 0.40618,0.67697 l 0.947754,0"
             style="fill:#f9f9f9;font-family:ChunkFive;-inkscape-font-specification:ChunkFive Bold"
             id="path3387" />
          <path
             inkscape:connector-curvature="0"
             d="m 95.793632,502.55838 0.805913,0 0.05803,-0.39329 c 0.154735,0.245 0.522233,0.47066 0.986438,0.47066 0.625388,0 1.199199,-0.36105 1.199199,-0.9671 0,-0.67696 -0.548021,-0.86394 -1.038016,-1.03157 -0.412627,-0.14184 -0.793019,-0.21921 -0.793019,-0.39973 0,-0.16118 0.116052,-0.2321 0.251445,-0.2321 0.322365,0 0.657625,0.21921 0.657625,0.48999 l 0.83815,0 0,-1.16051 -0.793018,0 -0.05158,0.42552 c -0.135393,-0.27724 -0.522232,-0.50289 -0.960649,-0.50289 -0.457758,0 -1.134726,0.27723 -1.134726,0.93486 0,0.60604 0.419076,0.87683 0.857492,1.03157 0.464206,0.16118 0.947754,0.19342 0.947754,0.38684 0,0.18052 -0.154735,0.2192 -0.283681,0.2192 -0.193419,0 -0.683415,-0.0903 -0.683415,-0.43197 l -0.863939,0 0,1.16052"
             style="fill:#f9f9f9;font-family:ChunkFive;-inkscape-font-specification:ChunkFive Bold"
             id="path3389" />
        </g>
        <g
           style="font-size:3.53634882px;font-style:normal;font-variant:normal;font-weight:bold;font-stretch:normal;line-height:125%;letter-spacing:0px;word-spacing:0px;fill:#ff6600;fill-opacity:0.92941176;stroke:none;font-family:Ubuntu;-inkscape-font-specification:Sans Bold"
           id="g3391">
          <path
             inkscape:connector-curvature="0"
             d="m 92.003996,504.59984 c 0,0.18743 0.166208,0.38193 0.399607,0.38193 0.265226,0 0.40668,-0.16975 0.40668,-0.38193 0,-0.18035 -0.148527,-0.40314 -0.40668,-0.40314 -0.258153,0 -0.399607,0.22279 -0.399607,0.40314"
             style="fill:#ff6600;font-family:ChunkFive;-inkscape-font-specification:ChunkFive Bold"
             id="path3393" />
          <path
             inkscape:connector-curvature="0"
             d="m 93.888207,505.01359 c 0.537524,0 0.972496,-0.33595 0.965423,-0.92298 -0.01061,-0.59057 -0.424362,-0.92653 -0.983105,-0.9336 -0.488016,0 -0.965423,0.32888 -0.96896,0.91945 -0.0071,0.62593 0.480944,0.93713 0.986642,0.93713 m 0,-0.45265 c -0.148527,0 -0.26169,-0.19096 -0.26169,-0.48094 0,-0.25816 0.10609,-0.46326 0.244008,-0.46326 0.166208,0.004 0.258153,0.20864 0.258153,0.47387 0,0.26522 -0.08841,0.47033 -0.240471,0.47033"
             style="fill:#ff6600;font-family:ChunkFive;-inkscape-font-specification:ChunkFive Bold"
             id="path3395" />
          <path
             inkscape:connector-curvature="0"
             d="m 95.982499,504.96762 0,-0.46326 -0.176818,0 0,-0.36424 c 0,-0.3112 0.180354,-0.39254 0.498626,-0.39254 l 0,-0.63654 c -0.364244,0 -0.45619,0.14499 -0.548134,0.31473 l -0.106091,-0.22632 -0.664834,0 0,0.45972 0.152063,0 0,0.84519 -0.155599,0 0,0.46326 1.000787,0"
             style="fill:#ff6600;font-family:ChunkFive;-inkscape-font-specification:ChunkFive Bold"
             id="path3397" />
          <path
             inkscape:connector-curvature="0"
             d="m 96.442445,505.38137 c 0.134381,0.12378 0.420826,0.30767 0.809824,0.3112 0.742632,-0.004 1.103341,-0.38546 1.103341,-0.97249 l 0,-1.05737 0.212181,0 0,-0.46326 -0.841651,0 -0.07073,0.10962 c -0.07073,-0.0707 -0.219254,-0.14499 -0.374853,-0.14499 -0.583497,0 -0.887624,0.36071 -0.887624,0.90884 0,0.44558 0.240472,0.88409 0.848724,0.88409 0.226326,0 0.364244,-0.13084 0.413753,-0.1945 l 0,0.12024 c 0,0.14852 -0.09195,0.33242 -0.410217,0.33242 -0.268762,0 -0.533989,-0.1556 -0.615325,-0.22633 l -0.187426,0.39253 m 0.703733,-1.31552 c 0,-0.26876 0.102555,-0.44204 0.251081,-0.44204 0.134381,0 0.254617,0.18389 0.254617,0.42436 0.01415,0.27937 -0.113163,0.45265 -0.251081,0.45265 -0.155599,0 -0.254617,-0.22279 -0.254617,-0.43497"
             style="fill:#ff6600;font-family:ChunkFive;-inkscape-font-specification:ChunkFive Bold"
             id="path3399" />
        </g>
      </g>
    </g>
    <g
       style="display:inline;enable-background:new"
       transform="matrix(0,1,-1,0,617.14911,-71.279163)"
       id="g3815">
      <path
         sodipodi:nodetypes="ssssccs"
         inkscape:connector-curvature="0"
         id="path3783"
         d="m 64.747724,516.2741 c -2.161447,0 -3.923664,1.56152 -3.923664,3.52777 l 0,4.21852 c 0,1.96625 1.762217,3.55245 3.923664,3.55245 l 36.511236,0 0,-11.29874 z"
         style="color:#000000;fill:#2b1100;fill-opacity:1;stroke:#ffffff;stroke-width:0.88582677;stroke-linecap:butt;stroke-linejoin:miter;stroke-miterlimit:4;stroke-opacity:1;stroke-dasharray:none;stroke-dashoffset:0;marker:none;visibility:visible;display:inline;overflow:visible;filter:url(#filter3733-8);enable-background:accumulate" />
      <g
         id="g3785"
         transform="translate(-5.4800773,20.240931)">
        <g
           id="g3787"
           style="font-size:6.44730759px;font-style:normal;font-variant:normal;font-weight:bold;font-stretch:normal;line-height:125%;letter-spacing:0px;word-spacing:0px;fill:#f9f9f9;fill-opacity:0.92941176;stroke:none;font-family:Ubuntu;-inkscape-font-specification:Sans Bold">
          <path
             id="path3789"
             style="fill:#f9f9f9;font-family:ChunkFive;-inkscape-font-specification:ChunkFive Bold"
             d="m 71.504911,501.10129 c -0.02579,-0.19342 -0.135394,-0.96065 -0.206314,-1.27012 l -0.16763,-0.94131 0.373944,0 0,-0.83815 -2.127612,0 0,0.83815 0.36105,0 0.851044,3.66852 1.495776,0 0.393285,-1.54735 c 0.04513,-0.18698 0.128947,-0.59316 0.154736,-0.78658 l 0.02579,0 c 0.03224,0.19987 0.103157,0.58026 0.161183,0.79947 l 0.386838,1.53446 1.528012,0 0.960649,-3.66852 0.354602,0 0,-0.83815 -1.84393,0 0,0.83815 0.354602,0 -0.219209,0.97999 c -0.05803,0.27079 -0.16763,0.94131 -0.193419,1.23144 l -0.03224,0 c -0.03224,-0.32237 -0.103157,-0.85105 -0.193419,-1.27012 l -0.40618,-1.77946 -1.34104,0 -0.322366,1.45065 c -0.128946,0.61249 -0.303023,1.4184 -0.315918,1.59893 l -0.03224,0"
             inkscape:connector-curvature="0" />
          <path
             id="path3791"
             style="fill:#f9f9f9;font-family:ChunkFive;-inkscape-font-specification:ChunkFive Bold"
             d="m 80.412672,498.05171 -4.326143,0 0,1.6763 0.947754,0 0,-0.82525 0.554468,0 0,2.79813 -0.528679,0 0,0.85749 2.398399,0 0,-0.85749 -0.535127,0 0,-2.79813 0.541574,0 0,0.82525 0.947754,0 0,-1.6763"
             inkscape:connector-curvature="0" />
          <path
             id="path3793"
             style="fill:#f9f9f9;font-family:ChunkFive;-inkscape-font-specification:ChunkFive Bold"
             d="m 81.01338,500.3534 c 0.244998,-0.13539 0.580258,-0.29658 0.960649,-0.29658 0.348155,0 0.612494,0.0709 0.612494,0.36105 l 0,0.22566 c -0.03224,-0.0387 -0.257892,-0.22566 -0.638283,-0.22566 -0.728545,0 -1.34104,0.45776 -1.34104,1.18631 0,0.74789 0.657626,1.0767 1.27012,1.0767 0.232102,0 0.631836,-0.0838 0.870386,-0.41263 l 0.154736,0.29013 1.379723,0 0,-0.82526 -0.386838,0 0,-1.25722 c 0,-1.03802 -0.973544,-1.32815 -1.74722,-1.32815 -0.593152,0 -1.147621,0.30303 -1.405514,0.45776 l 0.270787,0.74789 m 1.573143,1.27657 c -0.05803,0.0967 -0.219208,0.21276 -0.412627,0.21276 -0.193419,0 -0.341708,-0.1225 -0.341708,-0.30302 0,-0.19987 0.116052,-0.34171 0.373944,-0.34171 0.270787,0 0.36105,0.15473 0.380391,0.18697 l 0,0.245"
             inkscape:connector-curvature="0" />
          <path
             id="path3795"
             style="fill:#f9f9f9;font-family:ChunkFive;-inkscape-font-specification:ChunkFive Bold"
             d="m 87.645141,500.79182 0,-1.45709 -0.760782,0 -0.109604,0.30947 c -0.109605,-0.12895 -0.367497,-0.3675 -0.805914,-0.3675 -0.825254,0 -1.586038,0.50934 -1.586038,1.65051 0,1.14762 0.825257,1.72143 1.77301,1.72143 0.696309,0 1.276567,-0.32881 1.57959,-0.65762 l -0.567363,-0.65763 c -0.212761,0.2321 -0.438417,0.37395 -0.780124,0.3675 -0.412627,-0.006 -0.664073,-0.34171 -0.664073,-0.76078 0,-0.41908 0.186973,-0.82526 0.567363,-0.82526 0.296576,0 0.393286,0.3675 0.406181,0.67697 l 0.947754,0"
             inkscape:connector-curvature="0" />
          <path
             id="path3797"
             style="fill:#f9f9f9;font-family:ChunkFive;-inkscape-font-specification:ChunkFive Bold"
             d="m 87.898198,499.33473 0,0.83815 0.348155,0 0,1.14762 c 0.01934,0.82525 0.05158,1.35393 1.018675,1.35393 0.148288,0 0.586705,-0.0451 0.780124,-0.1225 l 0,-0.82525 c -0.122499,0.0516 -0.322366,0.1096 -0.40618,0.1096 -0.251445,0 -0.206314,-0.29657 -0.206314,-0.51578 l 0,-1.14762 0.612494,0 0,-0.83815 -0.612494,0 0,-0.97355 -1.186305,0.38039 0,0.59316 -0.348155,0"
             inkscape:connector-curvature="0" />
          <path
             id="path3799"
             style="fill:#f9f9f9;font-family:ChunkFive;-inkscape-font-specification:ChunkFive Bold"
             d="m 90.485382,498.39342 c 0,0.30947 0.290129,0.65118 0.696309,0.65118 0.457759,0 0.709204,-0.29658 0.709204,-0.65118 0,-0.29658 -0.26434,-0.65763 -0.709204,-0.65763 -0.451311,0 -0.696309,0.36105 -0.696309,0.65763 m 1.624722,4.16496 0,-0.8446 -0.309471,0 0,-2.37905 -1.495775,0 0,0.83815 0.270786,0 0,1.5409 -0.270786,0 0,0.8446 1.805246,0"
             inkscape:connector-curvature="0" />
          <path
             id="path3801"
             style="fill:#f9f9f9;font-family:ChunkFive;-inkscape-font-specification:ChunkFive Bold"
             d="m 95.540574,500.79182 0,-1.45709 -0.760782,0 -0.109604,0.30947 c -0.109604,-0.12895 -0.367497,-0.3675 -0.805913,-0.3675 -0.825255,0 -1.586038,0.50934 -1.586038,1.65051 0,1.14762 0.825256,1.72143 1.773009,1.72143 0.696309,0 1.276568,-0.32881 1.579591,-0.65762 l -0.567363,-0.65763 c -0.212761,0.2321 -0.438418,0.37395 -0.780124,0.3675 -0.412628,-0.006 -0.664073,-0.34171 -0.664073,-0.76078 0,-0.41908 0.186972,-0.82526 0.567363,-0.82526 0.296576,0 0.393286,0.3675 0.40618,0.67697 l 0.947754,0"
             inkscape:connector-curvature="0" />
          <path
             id="path3803"
             style="fill:#f9f9f9;font-family:ChunkFive;-inkscape-font-specification:ChunkFive Bold"
             d="m 95.793632,502.55838 0.805913,0 0.05803,-0.39329 c 0.154735,0.245 0.522233,0.47066 0.986438,0.47066 0.625388,0 1.199199,-0.36105 1.199199,-0.9671 0,-0.67696 -0.548021,-0.86394 -1.038016,-1.03157 -0.412627,-0.14184 -0.793019,-0.21921 -0.793019,-0.39973 0,-0.16118 0.116052,-0.2321 0.251445,-0.2321 0.322365,0 0.657625,0.21921 0.657625,0.48999 l 0.83815,0 0,-1.16051 -0.793018,0 -0.05158,0.42552 c -0.135393,-0.27724 -0.522232,-0.50289 -0.960649,-0.50289 -0.457758,0 -1.134726,0.27723 -1.134726,0.93486 0,0.60604 0.419076,0.87683 0.857492,1.03157 0.464206,0.16118 0.947754,0.19342 0.947754,0.38684 0,0.18052 -0.154735,0.2192 -0.283681,0.2192 -0.193419,0 -0.683415,-0.0903 -0.683415,-0.43197 l -0.863939,0 0,1.16052"
             inkscape:connector-curvature="0" />
        </g>
        <g
           id="g3805"
           style="font-size:3.53634882px;font-style:normal;font-variant:normal;font-weight:bold;font-stretch:normal;line-height:125%;letter-spacing:0px;word-spacing:0px;fill:#ff6600;fill-opacity:0.92941176;stroke:none;font-family:Ubuntu;-inkscape-font-specification:Sans Bold">
          <path
             id="path3807"
             style="fill:#ff6600;font-family:ChunkFive;-inkscape-font-specification:ChunkFive Bold"
             d="m 92.003996,504.59984 c 0,0.18743 0.166208,0.38193 0.399607,0.38193 0.265226,0 0.40668,-0.16975 0.40668,-0.38193 0,-0.18035 -0.148527,-0.40314 -0.40668,-0.40314 -0.258153,0 -0.399607,0.22279 -0.399607,0.40314"
             inkscape:connector-curvature="0" />
          <path
             id="path3809"
             style="fill:#ff6600;font-family:ChunkFive;-inkscape-font-specification:ChunkFive Bold"
             d="m 93.888207,505.01359 c 0.537524,0 0.972496,-0.33595 0.965423,-0.92298 -0.01061,-0.59057 -0.424362,-0.92653 -0.983105,-0.9336 -0.488016,0 -0.965423,0.32888 -0.96896,0.91945 -0.0071,0.62593 0.480944,0.93713 0.986642,0.93713 m 0,-0.45265 c -0.148527,0 -0.26169,-0.19096 -0.26169,-0.48094 0,-0.25816 0.10609,-0.46326 0.244008,-0.46326 0.166208,0.004 0.258153,0.20864 0.258153,0.47387 0,0.26522 -0.08841,0.47033 -0.240471,0.47033"
             inkscape:connector-curvature="0" />
          <path
             id="path3811"
             style="fill:#ff6600;font-family:ChunkFive;-inkscape-font-specification:ChunkFive Bold"
             d="m 95.982499,504.96762 0,-0.46326 -0.176818,0 0,-0.36424 c 0,-0.3112 0.180354,-0.39254 0.498626,-0.39254 l 0,-0.63654 c -0.364244,0 -0.45619,0.14499 -0.548134,0.31473 l -0.106091,-0.22632 -0.664834,0 0,0.45972 0.152063,0 0,0.84519 -0.155599,0 0,0.46326 1.000787,0"
             inkscape:connector-curvature="0" />
          <path
             id="path3813"
             style="fill:#ff6600;font-family:ChunkFive;-inkscape-font-specification:ChunkFive Bold"
             d="m 96.442445,505.38137 c 0.134381,0.12378 0.420826,0.30767 0.809824,0.3112 0.742632,-0.004 1.103341,-0.38546 1.103341,-0.97249 l 0,-1.05737 0.212181,0 0,-0.46326 -0.841651,0 -0.07073,0.10962 c -0.07073,-0.0707 -0.219254,-0.14499 -0.374853,-0.14499 -0.583497,0 -0.887624,0.36071 -0.887624,0.90884 0,0.44558 0.240472,0.88409 0.848724,0.88409 0.226326,0 0.364244,-0.13084 0.413753,-0.1945 l 0,0.12024 c 0,0.14852 -0.09195,0.33242 -0.410217,0.33242 -0.268762,0 -0.533989,-0.1556 -0.615325,-0.22633 l -0.187426,0.39253 m 0.703733,-1.31552 c 0,-0.26876 0.102555,-0.44204 0.251081,-0.44204 0.134381,0 0.254617,0.18389 0.254617,0.42436 0.01415,0.27937 -0.113163,0.45265 -0.251081,0.45265 -0.155599,0 -0.254617,-0.22279 -0.254617,-0.43497"
             inkscape:connector-curvature="0" />
        </g>
      </g>
    </g>
    <g
       style="display:inline;enable-background:new"
       id="g3833"
       transform="matrix(0,-1,1,0,-406.36851,93.278728)">
      <path
         style="color:#000000;fill:#2b1100;fill-opacity:1;stroke:#ffffff;stroke-width:0.88582677;stroke-linecap:butt;stroke-linejoin:miter;stroke-miterlimit:4;stroke-opacity:1;stroke-dasharray:none;stroke-dashoffset:0;marker:none;visibility:visible;display:inline;overflow:visible;filter:url(#filter3733-8);enable-background:accumulate"
         d="m 64.747724,516.2741 c -2.161447,0 -3.923664,1.56152 -3.923664,3.52777 l 0,4.21852 c 0,1.96625 1.762217,3.55245 3.923664,3.55245 l 36.511236,0 0,-11.29874 z"
         id="path3835"
         inkscape:connector-curvature="0"
         sodipodi:nodetypes="ssssccs" />
      <g
         transform="translate(-5.4800773,20.240931)"
         id="g3837">
        <g
           style="font-size:6.44730759px;font-style:normal;font-variant:normal;font-weight:bold;font-stretch:normal;line-height:125%;letter-spacing:0px;word-spacing:0px;fill:#f9f9f9;fill-opacity:0.92941176;stroke:none;font-family:Ubuntu;-inkscape-font-specification:Sans Bold"
           id="g3839">
          <path
             inkscape:connector-curvature="0"
             d="m 71.504911,501.10129 c -0.02579,-0.19342 -0.135394,-0.96065 -0.206314,-1.27012 l -0.16763,-0.94131 0.373944,0 0,-0.83815 -2.127612,0 0,0.83815 0.36105,0 0.851044,3.66852 1.495776,0 0.393285,-1.54735 c 0.04513,-0.18698 0.128947,-0.59316 0.154736,-0.78658 l 0.02579,0 c 0.03224,0.19987 0.103157,0.58026 0.161183,0.79947 l 0.386838,1.53446 1.528012,0 0.960649,-3.66852 0.354602,0 0,-0.83815 -1.84393,0 0,0.83815 0.354602,0 -0.219209,0.97999 c -0.05803,0.27079 -0.16763,0.94131 -0.193419,1.23144 l -0.03224,0 c -0.03224,-0.32237 -0.103157,-0.85105 -0.193419,-1.27012 l -0.40618,-1.77946 -1.34104,0 -0.322366,1.45065 c -0.128946,0.61249 -0.303023,1.4184 -0.315918,1.59893 l -0.03224,0"
             style="fill:#f9f9f9;font-family:ChunkFive;-inkscape-font-specification:ChunkFive Bold"
             id="path3841" />
          <path
             inkscape:connector-curvature="0"
             d="m 80.412672,498.05171 -4.326143,0 0,1.6763 0.947754,0 0,-0.82525 0.554468,0 0,2.79813 -0.528679,0 0,0.85749 2.398399,0 0,-0.85749 -0.535127,0 0,-2.79813 0.541574,0 0,0.82525 0.947754,0 0,-1.6763"
             style="fill:#f9f9f9;font-family:ChunkFive;-inkscape-font-specification:ChunkFive Bold"
             id="path3843" />
          <path
             inkscape:connector-curvature="0"
             d="m 81.01338,500.3534 c 0.244998,-0.13539 0.580258,-0.29658 0.960649,-0.29658 0.348155,0 0.612494,0.0709 0.612494,0.36105 l 0,0.22566 c -0.03224,-0.0387 -0.257892,-0.22566 -0.638283,-0.22566 -0.728545,0 -1.34104,0.45776 -1.34104,1.18631 0,0.74789 0.657626,1.0767 1.27012,1.0767 0.232102,0 0.631836,-0.0838 0.870386,-0.41263 l 0.154736,0.29013 1.379723,0 0,-0.82526 -0.386838,0 0,-1.25722 c 0,-1.03802 -0.973544,-1.32815 -1.74722,-1.32815 -0.593152,0 -1.147621,0.30303 -1.405514,0.45776 l 0.270787,0.74789 m 1.573143,1.27657 c -0.05803,0.0967 -0.219208,0.21276 -0.412627,0.21276 -0.193419,0 -0.341708,-0.1225 -0.341708,-0.30302 0,-0.19987 0.116052,-0.34171 0.373944,-0.34171 0.270787,0 0.36105,0.15473 0.380391,0.18697 l 0,0.245"
             style="fill:#f9f9f9;font-family:ChunkFive;-inkscape-font-specification:ChunkFive Bold"
             id="path3845" />
          <path
             inkscape:connector-curvature="0"
             d="m 87.645141,500.79182 0,-1.45709 -0.760782,0 -0.109604,0.30947 c -0.109605,-0.12895 -0.367497,-0.3675 -0.805914,-0.3675 -0.825254,0 -1.586038,0.50934 -1.586038,1.65051 0,1.14762 0.825257,1.72143 1.77301,1.72143 0.696309,0 1.276567,-0.32881 1.57959,-0.65762 l -0.567363,-0.65763 c -0.212761,0.2321 -0.438417,0.37395 -0.780124,0.3675 -0.412627,-0.006 -0.664073,-0.34171 -0.664073,-0.76078 0,-0.41908 0.186973,-0.82526 0.567363,-0.82526 0.296576,0 0.393286,0.3675 0.406181,0.67697 l 0.947754,0"
             style="fill:#f9f9f9;font-family:ChunkFive;-inkscape-font-specification:ChunkFive Bold"
             id="path3847" />
          <path
             inkscape:connector-curvature="0"
             d="m 87.898198,499.33473 0,0.83815 0.348155,0 0,1.14762 c 0.01934,0.82525 0.05158,1.35393 1.018675,1.35393 0.148288,0 0.586705,-0.0451 0.780124,-0.1225 l 0,-0.82525 c -0.122499,0.0516 -0.322366,0.1096 -0.40618,0.1096 -0.251445,0 -0.206314,-0.29657 -0.206314,-0.51578 l 0,-1.14762 0.612494,0 0,-0.83815 -0.612494,0 0,-0.97355 -1.186305,0.38039 0,0.59316 -0.348155,0"
             style="fill:#f9f9f9;font-family:ChunkFive;-inkscape-font-specification:ChunkFive Bold"
             id="path3849" />
          <path
             inkscape:connector-curvature="0"
             d="m 90.485382,498.39342 c 0,0.30947 0.290129,0.65118 0.696309,0.65118 0.457759,0 0.709204,-0.29658 0.709204,-0.65118 0,-0.29658 -0.26434,-0.65763 -0.709204,-0.65763 -0.451311,0 -0.696309,0.36105 -0.696309,0.65763 m 1.624722,4.16496 0,-0.8446 -0.309471,0 0,-2.37905 -1.495775,0 0,0.83815 0.270786,0 0,1.5409 -0.270786,0 0,0.8446 1.805246,0"
             style="fill:#f9f9f9;font-family:ChunkFive;-inkscape-font-specification:ChunkFive Bold"
             id="path3851" />
          <path
             inkscape:connector-curvature="0"
             d="m 95.540574,500.79182 0,-1.45709 -0.760782,0 -0.109604,0.30947 c -0.109604,-0.12895 -0.367497,-0.3675 -0.805913,-0.3675 -0.825255,0 -1.586038,0.50934 -1.586038,1.65051 0,1.14762 0.825256,1.72143 1.773009,1.72143 0.696309,0 1.276568,-0.32881 1.579591,-0.65762 l -0.567363,-0.65763 c -0.212761,0.2321 -0.438418,0.37395 -0.780124,0.3675 -0.412628,-0.006 -0.664073,-0.34171 -0.664073,-0.76078 0,-0.41908 0.186972,-0.82526 0.567363,-0.82526 0.296576,0 0.393286,0.3675 0.40618,0.67697 l 0.947754,0"
             style="fill:#f9f9f9;font-family:ChunkFive;-inkscape-font-specification:ChunkFive Bold"
             id="path3853" />
          <path
             inkscape:connector-curvature="0"
             d="m 95.793632,502.55838 0.805913,0 0.05803,-0.39329 c 0.154735,0.245 0.522233,0.47066 0.986438,0.47066 0.625388,0 1.199199,-0.36105 1.199199,-0.9671 0,-0.67696 -0.548021,-0.86394 -1.038016,-1.03157 -0.412627,-0.14184 -0.793019,-0.21921 -0.793019,-0.39973 0,-0.16118 0.116052,-0.2321 0.251445,-0.2321 0.322365,0 0.657625,0.21921 0.657625,0.48999 l 0.83815,0 0,-1.16051 -0.793018,0 -0.05158,0.42552 c -0.135393,-0.27724 -0.522232,-0.50289 -0.960649,-0.50289 -0.457758,0 -1.134726,0.27723 -1.134726,0.93486 0,0.60604 0.419076,0.87683 0.857492,1.03157 0.464206,0.16118 0.947754,0.19342 0.947754,0.38684 0,0.18052 -0.154735,0.2192 -0.283681,0.2192 -0.193419,0 -0.683415,-0.0903 -0.683415,-0.43197 l -0.863939,0 0,1.16052"
             style="fill:#f9f9f9;font-family:ChunkFive;-inkscape-font-specification:ChunkFive Bold"
             id="path3855" />
        </g>
        <g
           style="font-size:3.53634882px;font-style:normal;font-variant:normal;font-weight:bold;font-stretch:normal;line-height:125%;letter-spacing:0px;word-spacing:0px;fill:#ff6600;fill-opacity:0.92941176;stroke:none;font-family:Ubuntu;-inkscape-font-specification:Sans Bold"
           id="g3857">
          <path
             inkscape:connector-curvature="0"
             d="m 92.003996,504.59984 c 0,0.18743 0.166208,0.38193 0.399607,0.38193 0.265226,0 0.40668,-0.16975 0.40668,-0.38193 0,-0.18035 -0.148527,-0.40314 -0.40668,-0.40314 -0.258153,0 -0.399607,0.22279 -0.399607,0.40314"
             style="fill:#ff6600;font-family:ChunkFive;-inkscape-font-specification:ChunkFive Bold"
             id="path3859" />
          <path
             inkscape:connector-curvature="0"
             d="m 93.888207,505.01359 c 0.537524,0 0.972496,-0.33595 0.965423,-0.92298 -0.01061,-0.59057 -0.424362,-0.92653 -0.983105,-0.9336 -0.488016,0 -0.965423,0.32888 -0.96896,0.91945 -0.0071,0.62593 0.480944,0.93713 0.986642,0.93713 m 0,-0.45265 c -0.148527,0 -0.26169,-0.19096 -0.26169,-0.48094 0,-0.25816 0.10609,-0.46326 0.244008,-0.46326 0.166208,0.004 0.258153,0.20864 0.258153,0.47387 0,0.26522 -0.08841,0.47033 -0.240471,0.47033"
             style="fill:#ff6600;font-family:ChunkFive;-inkscape-font-specification:ChunkFive Bold"
             id="path3861" />
          <path
             inkscape:connector-curvature="0"
             d="m 95.982499,504.96762 0,-0.46326 -0.176818,0 0,-0.36424 c 0,-0.3112 0.180354,-0.39254 0.498626,-0.39254 l 0,-0.63654 c -0.364244,0 -0.45619,0.14499 -0.548134,0.31473 l -0.106091,-0.22632 -0.664834,0 0,0.45972 0.152063,0 0,0.84519 -0.155599,0 0,0.46326 1.000787,0"
             style="fill:#ff6600;font-family:ChunkFive;-inkscape-font-specification:ChunkFive Bold"
             id="path3863" />
          <path
             inkscape:connector-curvature="0"
             d="m 96.442445,505.38137 c 0.134381,0.12378 0.420826,0.30767 0.809824,0.3112 0.742632,-0.004 1.103341,-0.38546 1.103341,-0.97249 l 0,-1.05737 0.212181,0 0,-0.46326 -0.841651,0 -0.07073,0.10962 c -0.07073,-0.0707 -0.219254,-0.14499 -0.374853,-0.14499 -0.583497,0 -0.887624,0.36071 -0.887624,0.90884 0,0.44558 0.240472,0.88409 0.848724,0.88409 0.226326,0 0.364244,-0.13084 0.413753,-0.1945 l 0,0.12024 c 0,0.14852 -0.09195,0.33242 -0.410217,0.33242 -0.268762,0 -0.533989,-0.1556 -0.615325,-0.22633 l -0.187426,0.39253 m 0.703733,-1.31552 c 0,-0.26876 0.102555,-0.44204 0.251081,-0.44204 0.134381,0 0.254617,0.18389 0.254617,0.42436 0.01415,0.27937 -0.113163,0.45265 -0.251081,0.45265 -0.155599,0 -0.254617,-0.22279 -0.254617,-0.43497"
             style="fill:#ff6600;font-family:ChunkFive;-inkscape-font-specification:ChunkFive Bold"
             id="path3865" />
        </g>
      </g>
    </g>
  </g>
  <g
     inkscape:groupmode="layer"
     id="layer2"
     inkscape:label="Export layer"
     style="opacity:0.49382719;display:inline">
    <rect
       style="color:#000000;fill:none;stroke:none;stroke-width:5;marker:none;visibility:visible;display:inline;overflow:visible;enable-background:new"
       id="rect3788"
       width="44.105785"
       height="15.556349"
       x="30.582365"
       y="-4.9648833"
       inkscape:export-filename="/home/snowdrop/Skrivbord/tagright.png"
       inkscape:export-xdpi="408.10977"
       inkscape:export-ydpi="408.10977" />
  </g>
</svg>
