<?xml version="1.0" encoding="UTF-8" standalone="no"?>
<!-- Created with Inkscape (http://www.inkscape.org/) -->

<svg
   xmlns:dc="http://purl.org/dc/elements/1.1/"
   xmlns:cc="http://creativecommons.org/ns#"
   xmlns:rdf="http://www.w3.org/1999/02/22-rdf-syntax-ns#"
   xmlns:svg="http://www.w3.org/2000/svg"
   xmlns="http://www.w3.org/2000/svg"
   xmlns:sodipodi="http://sodipodi.sourceforge.net/DTD/sodipodi-0.dtd"
   xmlns:inkscape="http://www.inkscape.org/namespaces/inkscape"
   width="744.09448819"
   height="1052.3622047"
   id="svg2"
   version="1.1"
   inkscape:version="0.48.0 r9654"
   sodipodi:docname="New document 1">
  <defs
     id="defs4">
    <filter
       inkscape:collect="always"
       id="filter3886"
       x="-0.092213015"
       width="1.184426"
       y="-0.23446228"
       height="1.4689246">
      <feGaussianBlur
         inkscape:collect="always"
         stdDeviation="5.6803402"
         id="feGaussianBlur3888" />
    </filter>
    <filter
       inkscape:collect="always"
       id="filter3890"
       x="-0.023011589"
       width="1.0460232"
       y="-0.13711744"
       height="1.2742349">
      <feGaussianBlur
         inkscape:collect="always"
         stdDeviation="5.6803402"
         id="feGaussianBlur3892" />
    </filter>
  </defs>
  <sodipodi:namedview
     id="base"
     pagecolor="#ffffff"
     bordercolor="#666666"
     borderopacity="1.0"
     inkscape:pageopacity="0.0"
     inkscape:pageshadow="2"
     inkscape:zoom="0.35"
     inkscape:cx="482.60696"
     inkscape:cy="472.12023"
     inkscape:document-units="px"
     inkscape:current-layer="layer1"
     showgrid="false"
     inkscape:window-width="829"
     inkscape:window-height="718"
     inkscape:window-x="132"
     inkscape:window-y="156"
     inkscape:window-maximized="0" />
  <metadata
     id="metadata7">
    <rdf:RDF>
      <cc:Work
         rdf:about="">
        <dc:format>image/svg+xml</dc:format>
        <dc:type
           rdf:resource="http://purl.org/dc/dcmitype/StillImage" />
        <dc:title></dc:title>
      </cc:Work>
    </rdf:RDF>
  </metadata>
  <g
     inkscape:label="Layer 1"
     inkscape:groupmode="layer"
     id="layer1">
    <g
       transform="translate(8.9285836,-81.597604)"
       id="g3810"
       inkscape:label="Layer 1">
      <g
         transform="matrix(1.1626003,0,0,1.1626003,-107.6882,-50.399904)"
         id="g3812"
         style="font-size:111.49800873px;font-style:normal;font-weight:normal;fill:#28170b;fill-opacity:1;stroke:none;display:inline;enable-background:new;font-family:Clementine Sketch;-inkscape-font-specification:Clementine Sketch">
        <path
           inkscape:connector-curvature="0"
           id="path3814"
           style="fill:#28170b;font-family:ChunkFive;-inkscape-font-specification:ChunkFive"
           d="m 189.50659,368.16385 c -0.44599,-3.34494 -2.34146,-16.61321 -3.56794,-21.96511 l -2.89895,-16.27871 6.46689,0 0,-14.49474 -36.79435,0 0,14.49474 6.24389,0 14.71774,63.44237 25.86754,0 6.80138,-26.75953 c 0.78048,-3.23343 2.22996,-10.25782 2.67595,-13.60275 l 0.44599,0 c 0.55749,3.45643 1.78397,10.03482 2.78745,13.82575 l 6.68988,26.53653 26.42503,0 16.6132,-63.44237 6.13239,0 0,-14.49474 -31.88843,0 0,14.49474 6.13239,0 -3.79093,16.9477 c -1.00348,4.68291 -2.89895,16.27871 -3.34494,21.29612 l -0.55749,0 c -0.55749,-5.5749 -1.78397,-14.71775 -3.34494,-21.96511 l -7.02437,-30.77345 -23.19159,0 -5.5749,25.08705 c -2.22996,10.5923 -5.24041,24.52957 -5.4634,27.65151 l -0.55749,0" />
        <path
           inkscape:connector-curvature="0"
           id="path3816"
           style="fill:#28170b;font-family:ChunkFive;-inkscape-font-specification:ChunkFive"
           d="m 343.55502,315.42529 -74.81516,0 0,28.98948 16.39021,0 0,-14.27174 9.58883,0 0,48.39013 -9.14284,0 0,14.82924 41.47726,0 0,-14.82924 -9.25434,0 0,-48.39013 9.36584,0 0,14.27174 16.3902,0 0,-28.98948" />
        <path
           inkscape:connector-curvature="0"
           id="path3818"
           style="fill:#28170b;font-family:ChunkFive;-inkscape-font-specification:ChunkFive"
           d="m 353.9435,355.23008 c 4.23692,-2.34146 10.03483,-5.12891 16.61321,-5.12891 6.02088,0 10.59231,1.22648 10.59231,6.24389 l 0,3.90243 c -0.55749,-0.66899 -4.45993,-3.90243 -11.03831,-3.90243 -12.59926,0 -23.19158,7.91637 -23.19158,20.51563 0,12.93376 11.37281,18.62017 21.96511,18.62017 4.01392,0 10.92681,-1.44948 15.05223,-7.13587 l 2.67595,5.01741 23.86057,0 0,-14.27175 -6.68988,0 0,-21.74211 c 0,-17.95116 -16.83621,-22.96859 -30.21596,-22.96859 -10.2578,0 -19.84665,5.24041 -24.30656,7.91636 l 4.68291,12.93377 m 27.20552,22.0766 c -1.00348,1.67247 -3.79094,3.67944 -7.13588,3.67944 -3.34493,0 -5.90939,-2.11847 -5.90939,-5.24041 0,-3.45643 2.00697,-5.90939 6.46688,-5.90939 4.68292,0 6.24389,2.67595 6.57839,3.23344 l 0,4.23692" />
        <path
           inkscape:connector-curvature="0"
           id="path3820"
           style="fill:#28170b;font-family:ChunkFive;-inkscape-font-specification:ChunkFive"
           d="m 468.6314,362.81194 0,-25.19855 -13.15676,0 -1.89547,5.35191 c -1.89546,-2.22996 -6.35539,-6.35539 -13.93725,-6.35539 -14.27173,0 -27.42851,8.80836 -27.42851,28.54349 0,19.84663 14.27176,29.76997 30.66195,29.76997 12.04178,0 22.07661,-5.68641 27.31702,-11.3728 l -9.81183,-11.3728 c -3.67943,4.01393 -7.58187,6.46689 -13.49126,6.35539 -7.13586,-0.1115 -11.48429,-5.9094 -11.48429,-13.15676 0,-7.24737 3.23345,-14.27175 9.81182,-14.27175 5.12891,0 6.80138,6.35539 7.02438,11.70729 l 16.3902,0" />
        <path
           inkscape:connector-curvature="0"
           id="path3822"
           style="fill:#28170b;font-family:ChunkFive;-inkscape-font-specification:ChunkFive"
           d="m 473.00769,337.61339 0,14.49474 6.02089,0 0,19.84665 c 0.3345,14.27173 0.892,23.41458 17.61669,23.41458 2.56445,0 10.14632,-0.78049 13.49126,-2.11846 l 0,-14.27175 c -2.11846,0.89199 -5.5749,1.89547 -7.02438,1.89547 -4.34842,0 -3.56793,-5.12891 -3.56793,-8.91984 l 0,-19.84665 10.59231,0 0,-14.49474 -10.59231,0 0,-16.8362 -20.51564,6.57839 0,10.25781 -6.02089,0" />
        <path
           inkscape:connector-curvature="0"
           id="path3824"
           style="fill:#28170b;font-family:ChunkFive;-inkscape-font-specification:ChunkFive"
           d="m 517.74977,321.33468 c 0,5.3519 5.01742,11.2613 12.04179,11.2613 7.91635,0 12.26478,-5.12891 12.26478,-11.2613 0,-5.1289 -4.57143,-11.37279 -12.26478,-11.37279 -7.80486,0 -12.04179,6.24389 -12.04179,11.37279 m 28.0975,72.02772 0,-14.60624 -5.3519,0 0,-41.14277 -25.86754,0 0,14.49474 4.68291,0 0,26.64803 -4.68291,0 0,14.60624 31.21944,0" />
        <path
           inkscape:connector-curvature="0"
           id="path3826"
           style="fill:#28170b;font-family:ChunkFive;-inkscape-font-specification:ChunkFive"
           d="m 605.17291,362.81194 0,-25.19855 -13.15677,0 -1.89546,5.35191 c -1.89547,-2.22996 -6.3554,-6.35539 -13.93725,-6.35539 -14.27174,0 -27.42851,8.80836 -27.42851,28.54349 0,19.84663 14.27176,29.76997 30.66195,29.76997 12.04177,0 22.07661,-5.68641 27.31701,-11.3728 l -9.81182,-11.3728 c -3.67944,4.01393 -7.58188,6.46689 -13.49126,6.35539 -7.13587,-0.1115 -11.4843,-5.9094 -11.4843,-13.15676 0,-7.24737 3.23345,-14.27175 9.81183,-14.27175 5.1289,0 6.80137,6.35539 7.02437,11.70729 l 16.39021,0" />
        <path
           inkscape:connector-curvature="0"
           id="path3828"
           style="fill:#28170b;font-family:ChunkFive;-inkscape-font-specification:ChunkFive"
           d="m 609.54919,393.3624 13.93726,0 1.00348,-6.80138 c 2.67595,4.23692 9.03134,8.13935 17.05919,8.13935 10.8153,0 20.73863,-6.2439 20.73863,-16.7247 0,-11.70728 -9.47734,-14.94074 -17.95118,-17.83968 -7.13586,-2.45295 -13.71425,-3.79094 -13.71425,-6.91288 0,-2.78744 2.00696,-4.01393 4.34842,-4.01393 5.5749,0 11.3728,3.79094 11.3728,8.47385 l 14.49474,0 0,-20.06964 -13.71426,0 -0.89198,7.35887 c -2.34146,-4.79441 -9.03135,-8.69684 -16.6132,-8.69684 -7.91635,0 -19.62365,4.79442 -19.62365,16.16721 0,10.4808 7.24737,15.16373 14.82923,17.83968 8.02785,2.78745 16.39021,3.34494 16.39021,6.68988 0,3.12194 -2.67596,3.79093 -4.90591,3.79093 -3.34494,0 -11.81879,-1.56098 -11.81879,-7.47037 l -14.94074,0 0,20.06965" />
      </g>
    </g>
    <g
       transform="translate(8.9285836,-281.5976)"
       id="layer1-7"
       inkscape:label="Layer 1">
      <g
         transform="matrix(1.1626003,0,0,1.1626003,-107.6882,-50.399904)"
         id="text13788"
         style="font-size:111.49800873px;font-style:normal;font-weight:normal;fill:#28170b;fill-opacity:1;stroke:none;display:inline;enable-background:new;font-family:Clementine Sketch;-inkscape-font-specification:Clementine Sketch">
        <path
           inkscape:connector-curvature="0"
           id="path12566"
           style="fill:#28170b;font-family:ChunkFive;-inkscape-font-specification:ChunkFive"
           d="m 189.50659,368.16385 c -0.44599,-3.34494 -2.34146,-16.61321 -3.56794,-21.96511 l -2.89895,-16.27871 6.46689,0 0,-14.49474 -36.79435,0 0,14.49474 6.24389,0 14.71774,63.44237 25.86754,0 6.80138,-26.75953 c 0.78048,-3.23343 2.22996,-10.25782 2.67595,-13.60275 l 0.44599,0 c 0.55749,3.45643 1.78397,10.03482 2.78745,13.82575 l 6.68988,26.53653 26.42503,0 16.6132,-63.44237 6.13239,0 0,-14.49474 -31.88843,0 0,14.49474 6.13239,0 -3.79093,16.9477 c -1.00348,4.68291 -2.89895,16.27871 -3.34494,21.29612 l -0.55749,0 c -0.55749,-5.5749 -1.78397,-14.71775 -3.34494,-21.96511 l -7.02437,-30.77345 -23.19159,0 -5.5749,25.08705 c -2.22996,10.5923 -5.24041,24.52957 -5.4634,27.65151 l -0.55749,0" />
        <path
           inkscape:connector-curvature="0"
           id="path12568"
           style="fill:#28170b;font-family:ChunkFive;-inkscape-font-specification:ChunkFive"
           d="m 343.55502,315.42529 -74.81516,0 0,28.98948 16.39021,0 0,-14.27174 9.58883,0 0,48.39013 -9.14284,0 0,14.82924 41.47726,0 0,-14.82924 -9.25434,0 0,-48.39013 9.36584,0 0,14.27174 16.3902,0 0,-28.98948" />
        <path
           inkscape:connector-curvature="0"
           id="path12570"
           style="fill:#28170b;font-family:ChunkFive;-inkscape-font-specification:ChunkFive"
           d="m 353.9435,355.23008 c 4.23692,-2.34146 10.03483,-5.12891 16.61321,-5.12891 6.02088,0 10.59231,1.22648 10.59231,6.24389 l 0,3.90243 c -0.55749,-0.66899 -4.45993,-3.90243 -11.03831,-3.90243 -12.59926,0 -23.19158,7.91637 -23.19158,20.51563 0,12.93376 11.37281,18.62017 21.96511,18.62017 4.01392,0 10.92681,-1.44948 15.05223,-7.13587 l 2.67595,5.01741 23.86057,0 0,-14.27175 -6.68988,0 0,-21.74211 c 0,-17.95116 -16.83621,-22.96859 -30.21596,-22.96859 -10.2578,0 -19.84665,5.24041 -24.30656,7.91636 l 4.68291,12.93377 m 27.20552,22.0766 c -1.00348,1.67247 -3.79094,3.67944 -7.13588,3.67944 -3.34493,0 -5.90939,-2.11847 -5.90939,-5.24041 0,-3.45643 2.00697,-5.90939 6.46688,-5.90939 4.68292,0 6.24389,2.67595 6.57839,3.23344 l 0,4.23692" />
        <path
           inkscape:connector-curvature="0"
           id="path12572"
           style="fill:#28170b;font-family:ChunkFive;-inkscape-font-specification:ChunkFive"
           d="m 468.6314,362.81194 0,-25.19855 -13.15676,0 -1.89547,5.35191 c -1.89546,-2.22996 -6.35539,-6.35539 -13.93725,-6.35539 -14.27173,0 -27.42851,8.80836 -27.42851,28.54349 0,19.84663 14.27176,29.76997 30.66195,29.76997 12.04178,0 22.07661,-5.68641 27.31702,-11.3728 l -9.81183,-11.3728 c -3.67943,4.01393 -7.58187,6.46689 -13.49126,6.35539 -7.13586,-0.1115 -11.48429,-5.9094 -11.48429,-13.15676 0,-7.24737 3.23345,-14.27175 9.81182,-14.27175 5.12891,0 6.80138,6.35539 7.02438,11.70729 l 16.3902,0" />
        <path
           inkscape:connector-curvature="0"
           id="path12574"
           style="fill:#28170b;font-family:ChunkFive;-inkscape-font-specification:ChunkFive"
           d="m 473.00769,337.61339 0,14.49474 6.02089,0 0,19.84665 c 0.3345,14.27173 0.892,23.41458 17.61669,23.41458 2.56445,0 10.14632,-0.78049 13.49126,-2.11846 l 0,-14.27175 c -2.11846,0.89199 -5.5749,1.89547 -7.02438,1.89547 -4.34842,0 -3.56793,-5.12891 -3.56793,-8.91984 l 0,-19.84665 10.59231,0 0,-14.49474 -10.59231,0 0,-16.8362 -20.51564,6.57839 0,10.25781 -6.02089,0" />
        <path
           inkscape:connector-curvature="0"
           id="path12576"
           style="fill:#28170b;font-family:ChunkFive;-inkscape-font-specification:ChunkFive"
           d="m 517.74977,321.33468 c 0,5.3519 5.01742,11.2613 12.04179,11.2613 7.91635,0 12.26478,-5.12891 12.26478,-11.2613 0,-5.1289 -4.57143,-11.37279 -12.26478,-11.37279 -7.80486,0 -12.04179,6.24389 -12.04179,11.37279 m 28.0975,72.02772 0,-14.60624 -5.3519,0 0,-41.14277 -25.86754,0 0,14.49474 4.68291,0 0,26.64803 -4.68291,0 0,14.60624 31.21944,0" />
        <path
           inkscape:connector-curvature="0"
           id="path12578"
           style="fill:#28170b;font-family:ChunkFive;-inkscape-font-specification:ChunkFive"
           d="m 605.17291,362.81194 0,-25.19855 -13.15677,0 -1.89546,5.35191 c -1.89547,-2.22996 -6.3554,-6.35539 -13.93725,-6.35539 -14.27174,0 -27.42851,8.80836 -27.42851,28.54349 0,19.84663 14.27176,29.76997 30.66195,29.76997 12.04177,0 22.07661,-5.68641 27.31701,-11.3728 l -9.81182,-11.3728 c -3.67944,4.01393 -7.58188,6.46689 -13.49126,6.35539 -7.13587,-0.1115 -11.4843,-5.9094 -11.4843,-13.15676 0,-7.24737 3.23345,-14.27175 9.81183,-14.27175 5.1289,0 6.80137,6.35539 7.02437,11.70729 l 16.39021,0" />
        <path
           inkscape:connector-curvature="0"
           id="path12580"
           style="fill:#28170b;font-family:ChunkFive;-inkscape-font-specification:ChunkFive"
           d="m 609.54919,393.3624 13.93726,0 1.00348,-6.80138 c 2.67595,4.23692 9.03134,8.13935 17.05919,8.13935 10.8153,0 20.73863,-6.2439 20.73863,-16.7247 0,-11.70728 -9.47734,-14.94074 -17.95118,-17.83968 -7.13586,-2.45295 -13.71425,-3.79094 -13.71425,-6.91288 0,-2.78744 2.00696,-4.01393 4.34842,-4.01393 5.5749,0 11.3728,3.79094 11.3728,8.47385 l 14.49474,0 0,-20.06964 -13.71426,0 -0.89198,7.35887 c -2.34146,-4.79441 -9.03135,-8.69684 -16.6132,-8.69684 -7.91635,0 -19.62365,4.79442 -19.62365,16.16721 0,10.4808 7.24737,15.16373 14.82923,17.83968 8.02785,2.78745 16.39021,3.34494 16.39021,6.68988 0,3.12194 -2.67596,3.79093 -4.90591,3.79093 -3.34494,0 -11.81879,-1.56098 -11.81879,-7.47037 l -14.94074,0 0,20.06965" />
      </g>
    </g>
    <g
       id="g3830"
       style="font-size:79.65174866px;font-style:normal;font-weight:normal;line-height:125%;letter-spacing:0px;word-spacing:0px;fill:#d44500;fill-opacity:1;stroke:none;font-family:Sans">
      <path
         id="path3832"
         style="fill:#d44500;font-family:ChunkFive Roman;-inkscape-font-specification:ChunkFive Roman"
         d="m 520.2124,368.69826 c 0.0465,2.20533 0.88943,4.16673 2.52891,5.88419 1.63947,1.71747 3.79668,2.6235 6.47162,2.71809 2.99519,-0.0597 5.26855,-0.89607 6.82009,-2.509 1.55151,-1.61293 2.33143,-3.64402 2.33974,-6.09328 -0.0183,-2.15554 -0.81809,-4.17667 -2.39947,-6.06341 -1.58142,-1.88671 -3.83487,-2.8923 -6.76036,-3.01677 -2.91887,0.12447 -5.14577,1.13006 -6.6807,3.01677 -1.53494,1.88674 -2.30822,3.90787 -2.31983,6.06341 z"
         inkscape:connector-curvature="0" />
      <path
         id="path3834"
         style="fill:#d44500;font-family:ChunkFive Roman;-inkscape-font-specification:ChunkFive Roman"
         d="m 562.65157,378.01739 c 6.21272,-0.0398 11.3701,-1.85188 15.47215,-5.43616 4.10197,-3.58427 6.1928,-8.70183 6.27249,-15.35268 -0.24065,-6.68565 -2.3879,-11.83308 -6.44175,-15.44228 -4.05392,-3.60913 -9.28763,-5.47097 -15.70115,-5.58551 -5.71329,0.0316 -10.71469,1.82039 -15.0042,5.36647 -4.28953,3.54615 -6.56289,8.66038 -6.8201,15.34272 0.14437,7.04744 2.40446,12.32762 6.78027,15.84054 4.3758,3.51293 9.52322,5.26856 15.44229,5.2669 z m 0,-10.19529 c -1.7092,-0.0431 -3.10972,-1.03213 -4.20158,-2.96699 -1.0919,-1.93484 -1.65609,-4.55667 -1.69258,-7.86551 0.0348,-2.97858 0.56252,-5.44443 1.58306,-7.39756 1.02051,-1.95307 2.32479,-2.9653 3.91284,-3.03668 1.88007,0.10623 3.3171,1.14832 4.3111,3.12629 0.99394,1.97802 1.49508,4.49365 1.50341,7.5469 -0.0117,3.05496 -0.48623,5.56727 -1.42376,7.53695 -0.93758,1.96971 -2.26841,2.98857 -3.99249,3.0566 z"
         inkscape:connector-curvature="0" />
      <path
         id="path3836"
         style="fill:#d44500;font-family:ChunkFive Roman;-inkscape-font-specification:ChunkFive Roman"
         d="m 609.82281,376.98193 0,-10.43424 -3.98254,0 0,-8.20403 c 0.0199,-3.43491 0.99561,-5.7846 2.92716,-7.04909 1.93151,-1.26443 4.69937,-1.8618 8.30359,-1.79214 l 0,-14.33713 c -3.97427,0.0565 -6.79855,0.76005 -8.47285,2.11075 -1.67434,1.35078 -2.96535,3.01017 -3.87301,4.97817 l -2.38952,-5.09765 -14.97434,0 0,10.3546 3.42498,0 0,19.03652 -3.50463,0 0,10.43424 z"
         inkscape:connector-curvature="0" />
      <path
         id="path3838"
         style="fill:#d44500;font-family:ChunkFive Roman;-inkscape-font-specification:ChunkFive Roman"
         d="m 620.1828,386.30107 c 1.53659,1.50671 3.85973,3.01344 6.96943,4.52018 3.10969,1.50671 6.86654,2.3364 11.27058,2.48908 8.35334,-0.12115 14.58601,-2.12901 18.69801,-6.02358 4.11192,-3.8946 6.16293,-9.18805 6.15302,-15.88037 l 0,-23.81556 4.77904,0 0,-10.43425 -18.95687,0 -1.59302,2.46917 c -0.82972,-0.83297 -1.99793,-1.57638 -3.50463,-2.23022 -1.50675,-0.65376 -3.15286,-0.99891 -4.93834,-1.03546 -6.58282,0.0814 -11.55766,1.94983 -14.92456,5.60542 -3.3669,3.65567 -5.05616,8.61061 -5.06777,14.86482 -0.0597,5.22046 1.41379,9.79373 4.42061,13.71984 3.00681,3.92612 7.90532,5.9904 14.69556,6.19284 2.5488,-0.0929 4.5998,-0.64384 6.15302,-1.65275 1.55316,-1.00891 2.60853,-1.91825 3.16611,-2.72804 l 0,2.70813 c 0.063,1.77554 -0.58081,3.44157 -1.93153,4.99808 -1.35077,1.5565 -3.78675,2.3862 -7.30795,2.48908 -3.11137,-0.11284 -5.94893,-0.76332 -8.51267,-1.95144 -2.56377,-1.18813 -4.34595,-2.23686 -5.34656,-3.1462 z M 636.03329,356.671 c 0.0265,-3.06321 0.5509,-5.47928 1.5731,-7.24822 1.02217,-1.76888 2.38286,-2.67158 4.0821,-2.70812 1.56312,0.0598 2.89727,0.97575 4.00245,2.74795 1.10513,1.77225 1.68259,4.0423 1.7324,6.81014 0.0979,3.17774 -0.41653,5.66351 -1.54323,7.45729 -1.12675,1.79381 -2.49741,2.70648 -4.11197,2.738 -1.77225,-0.10951 -3.16613,-1.14497 -4.18166,-3.10638 -1.01557,-1.96138 -1.5333,-4.1916 -1.55319,-6.69066 z"
         inkscape:connector-curvature="0" />
    </g>
    <g
       id="g3894">
      <g
         style="fill:#000000;filter:url(#filter3890);opacity:0.42081448"
         inkscape:label="Layer 1"
         id="g3840"
         transform="translate(8.9285836,358.4024)">
        <g
           style="font-size:111.49800873000000000px;font-style:normal;font-weight:normal;fill:#000000;fill-opacity:1;stroke:none;display:inline;enable-background:new;font-family:Clementine Sketch;-inkscape-font-specification:Clementine Sketch"
           id="g3842"
           transform="matrix(1.1626003,0,0,1.1626003,-107.6882,-50.399904)">
          <path
             d="m 189.50659,368.16385 c -0.44599,-3.34494 -2.34146,-16.61321 -3.56794,-21.96511 l -2.89895,-16.27871 6.46689,0 0,-14.49474 -36.79435,0 0,14.49474 6.24389,0 14.71774,63.44237 25.86754,0 6.80138,-26.75953 c 0.78048,-3.23343 2.22996,-10.25782 2.67595,-13.60275 l 0.44599,0 c 0.55749,3.45643 1.78397,10.03482 2.78745,13.82575 l 6.68988,26.53653 26.42503,0 16.6132,-63.44237 6.13239,0 0,-14.49474 -31.88843,0 0,14.49474 6.13239,0 -3.79093,16.9477 c -1.00348,4.68291 -2.89895,16.27871 -3.34494,21.29612 l -0.55749,0 c -0.55749,-5.5749 -1.78397,-14.71775 -3.34494,-21.96511 l -7.02437,-30.77345 -23.19159,0 -5.5749,25.08705 c -2.22996,10.5923 -5.24041,24.52957 -5.4634,27.65151 l -0.55749,0"
             style="fill:#000000;font-family:ChunkFive;-inkscape-font-specification:ChunkFive"
             id="path3844"
             inkscape:connector-curvature="0" />
          <path
             d="m 343.55502,315.42529 -74.81516,0 0,28.98948 16.39021,0 0,-14.27174 9.58883,0 0,48.39013 -9.14284,0 0,14.82924 41.47726,0 0,-14.82924 -9.25434,0 0,-48.39013 9.36584,0 0,14.27174 16.3902,0 0,-28.98948"
             style="fill:#000000;font-family:ChunkFive;-inkscape-font-specification:ChunkFive"
             id="path3846"
             inkscape:connector-curvature="0" />
          <path
             d="m 353.9435,355.23008 c 4.23692,-2.34146 10.03483,-5.12891 16.61321,-5.12891 6.02088,0 10.59231,1.22648 10.59231,6.24389 l 0,3.90243 c -0.55749,-0.66899 -4.45993,-3.90243 -11.03831,-3.90243 -12.59926,0 -23.19158,7.91637 -23.19158,20.51563 0,12.93376 11.37281,18.62017 21.96511,18.62017 4.01392,0 10.92681,-1.44948 15.05223,-7.13587 l 2.67595,5.01741 23.86057,0 0,-14.27175 -6.68988,0 0,-21.74211 c 0,-17.95116 -16.83621,-22.96859 -30.21596,-22.96859 -10.2578,0 -19.84665,5.24041 -24.30656,7.91636 l 4.68291,12.93377 m 27.20552,22.0766 c -1.00348,1.67247 -3.79094,3.67944 -7.13588,3.67944 -3.34493,0 -5.90939,-2.11847 -5.90939,-5.24041 0,-3.45643 2.00697,-5.90939 6.46688,-5.90939 4.68292,0 6.24389,2.67595 6.57839,3.23344 l 0,4.23692"
             style="fill:#000000;font-family:ChunkFive;-inkscape-font-specification:ChunkFive"
             id="path3848"
             inkscape:connector-curvature="0" />
          <path
             d="m 468.6314,362.81194 0,-25.19855 -13.15676,0 -1.89547,5.35191 c -1.89546,-2.22996 -6.35539,-6.35539 -13.93725,-6.35539 -14.27173,0 -27.42851,8.80836 -27.42851,28.54349 0,19.84663 14.27176,29.76997 30.66195,29.76997 12.04178,0 22.07661,-5.68641 27.31702,-11.3728 l -9.81183,-11.3728 c -3.67943,4.01393 -7.58187,6.46689 -13.49126,6.35539 -7.13586,-0.1115 -11.48429,-5.9094 -11.48429,-13.15676 0,-7.24737 3.23345,-14.27175 9.81182,-14.27175 5.12891,0 6.80138,6.35539 7.02438,11.70729 l 16.3902,0"
             style="fill:#000000;font-family:ChunkFive;-inkscape-font-specification:ChunkFive"
             id="path3850"
             inkscape:connector-curvature="0" />
          <path
             d="m 473.00769,337.61339 0,14.49474 6.02089,0 0,19.84665 c 0.3345,14.27173 0.892,23.41458 17.61669,23.41458 2.56445,0 10.14632,-0.78049 13.49126,-2.11846 l 0,-14.27175 c -2.11846,0.89199 -5.5749,1.89547 -7.02438,1.89547 -4.34842,0 -3.56793,-5.12891 -3.56793,-8.91984 l 0,-19.84665 10.59231,0 0,-14.49474 -10.59231,0 0,-16.8362 -20.51564,6.57839 0,10.25781 -6.02089,0"
             style="fill:#000000;font-family:ChunkFive;-inkscape-font-specification:ChunkFive"
             id="path3852"
             inkscape:connector-curvature="0" />
          <path
             d="m 517.74977,321.33468 c 0,5.3519 5.01742,11.2613 12.04179,11.2613 7.91635,0 12.26478,-5.12891 12.26478,-11.2613 0,-5.1289 -4.57143,-11.37279 -12.26478,-11.37279 -7.80486,0 -12.04179,6.24389 -12.04179,11.37279 m 28.0975,72.02772 0,-14.60624 -5.3519,0 0,-41.14277 -25.86754,0 0,14.49474 4.68291,0 0,26.64803 -4.68291,0 0,14.60624 31.21944,0"
             style="fill:#000000;font-family:ChunkFive;-inkscape-font-specification:ChunkFive"
             id="path3854"
             inkscape:connector-curvature="0" />
          <path
             d="m 605.17291,362.81194 0,-25.19855 -13.15677,0 -1.89546,5.35191 c -1.89547,-2.22996 -6.3554,-6.35539 -13.93725,-6.35539 -14.27174,0 -27.42851,8.80836 -27.42851,28.54349 0,19.84663 14.27176,29.76997 30.66195,29.76997 12.04177,0 22.07661,-5.68641 27.31701,-11.3728 l -9.81182,-11.3728 c -3.67944,4.01393 -7.58188,6.46689 -13.49126,6.35539 -7.13587,-0.1115 -11.4843,-5.9094 -11.4843,-13.15676 0,-7.24737 3.23345,-14.27175 9.81183,-14.27175 5.1289,0 6.80137,6.35539 7.02437,11.70729 l 16.39021,0"
             style="fill:#000000;font-family:ChunkFive;-inkscape-font-specification:ChunkFive"
             id="path3856"
             inkscape:connector-curvature="0" />
          <path
             d="m 609.54919,393.3624 13.93726,0 1.00348,-6.80138 c 2.67595,4.23692 9.03134,8.13935 17.05919,8.13935 10.8153,0 20.73863,-6.2439 20.73863,-16.7247 0,-11.70728 -9.47734,-14.94074 -17.95118,-17.83968 -7.13586,-2.45295 -13.71425,-3.79094 -13.71425,-6.91288 0,-2.78744 2.00696,-4.01393 4.34842,-4.01393 5.5749,0 11.3728,3.79094 11.3728,8.47385 l 14.49474,0 0,-20.06964 -13.71426,0 -0.89198,7.35887 c -2.34146,-4.79441 -9.03135,-8.69684 -16.6132,-8.69684 -7.91635,0 -19.62365,4.79442 -19.62365,16.16721 0,10.4808 7.24737,15.16373 14.82923,17.83968 8.02785,2.78745 16.39021,3.34494 16.39021,6.68988 0,3.12194 -2.67596,3.79093 -4.90591,3.79093 -3.34494,0 -11.81879,-1.56098 -11.81879,-7.47037 l -14.94074,0 0,20.06965"
             style="fill:#000000;font-family:ChunkFive;-inkscape-font-specification:ChunkFive"
             id="path3858"
             inkscape:connector-curvature="0" />
        </g>
      </g>
      <g
         transform="translate(3.2142943,346.97383)"
         id="g3009"
         inkscape:label="Layer 1">
        <g
           transform="matrix(1.1626003,0,0,1.1626003,-107.6882,-50.399904)"
           id="g3011"
           style="font-size:111.49800873px;font-style:normal;font-weight:normal;fill:#28170b;fill-opacity:1;stroke:none;display:inline;enable-background:new;font-family:Clementine Sketch;-inkscape-font-specification:Clementine Sketch">
          <path
             inkscape:connector-curvature="0"
             id="path3013"
             style="fill:#28170b;font-family:ChunkFive;-inkscape-font-specification:ChunkFive"
             d="m 189.50659,368.16385 c -0.44599,-3.34494 -2.34146,-16.61321 -3.56794,-21.96511 l -2.89895,-16.27871 6.46689,0 0,-14.49474 -36.79435,0 0,14.49474 6.24389,0 14.71774,63.44237 25.86754,0 6.80138,-26.75953 c 0.78048,-3.23343 2.22996,-10.25782 2.67595,-13.60275 l 0.44599,0 c 0.55749,3.45643 1.78397,10.03482 2.78745,13.82575 l 6.68988,26.53653 26.42503,0 16.6132,-63.44237 6.13239,0 0,-14.49474 -31.88843,0 0,14.49474 6.13239,0 -3.79093,16.9477 c -1.00348,4.68291 -2.89895,16.27871 -3.34494,21.29612 l -0.55749,0 c -0.55749,-5.5749 -1.78397,-14.71775 -3.34494,-21.96511 l -7.02437,-30.77345 -23.19159,0 -5.5749,25.08705 c -2.22996,10.5923 -5.24041,24.52957 -5.4634,27.65151 l -0.55749,0" />
          <path
             inkscape:connector-curvature="0"
             id="path3015"
             style="fill:#28170b;font-family:ChunkFive;-inkscape-font-specification:ChunkFive"
             d="m 343.55502,315.42529 -74.81516,0 0,28.98948 16.39021,0 0,-14.27174 9.58883,0 0,48.39013 -9.14284,0 0,14.82924 41.47726,0 0,-14.82924 -9.25434,0 0,-48.39013 9.36584,0 0,14.27174 16.3902,0 0,-28.98948" />
          <path
             inkscape:connector-curvature="0"
             id="path3017"
             style="fill:#28170b;font-family:ChunkFive;-inkscape-font-specification:ChunkFive"
             d="m 353.9435,355.23008 c 4.23692,-2.34146 10.03483,-5.12891 16.61321,-5.12891 6.02088,0 10.59231,1.22648 10.59231,6.24389 l 0,3.90243 c -0.55749,-0.66899 -4.45993,-3.90243 -11.03831,-3.90243 -12.59926,0 -23.19158,7.91637 -23.19158,20.51563 0,12.93376 11.37281,18.62017 21.96511,18.62017 4.01392,0 10.92681,-1.44948 15.05223,-7.13587 l 2.67595,5.01741 23.86057,0 0,-14.27175 -6.68988,0 0,-21.74211 c 0,-17.95116 -16.83621,-22.96859 -30.21596,-22.96859 -10.2578,0 -19.84665,5.24041 -24.30656,7.91636 l 4.68291,12.93377 m 27.20552,22.0766 c -1.00348,1.67247 -3.79094,3.67944 -7.13588,3.67944 -3.34493,0 -5.90939,-2.11847 -5.90939,-5.24041 0,-3.45643 2.00697,-5.90939 6.46688,-5.90939 4.68292,0 6.24389,2.67595 6.57839,3.23344 l 0,4.23692" />
          <path
             inkscape:connector-curvature="0"
             id="path3019"
             style="fill:#28170b;font-family:ChunkFive;-inkscape-font-specification:ChunkFive"
             d="m 468.6314,362.81194 0,-25.19855 -13.15676,0 -1.89547,5.35191 c -1.89546,-2.22996 -6.35539,-6.35539 -13.93725,-6.35539 -14.27173,0 -27.42851,8.80836 -27.42851,28.54349 0,19.84663 14.27176,29.76997 30.66195,29.76997 12.04178,0 22.07661,-5.68641 27.31702,-11.3728 l -9.81183,-11.3728 c -3.67943,4.01393 -7.58187,6.46689 -13.49126,6.35539 -7.13586,-0.1115 -11.48429,-5.9094 -11.48429,-13.15676 0,-7.24737 3.23345,-14.27175 9.81182,-14.27175 5.12891,0 6.80138,6.35539 7.02438,11.70729 l 16.3902,0" />
          <path
             inkscape:connector-curvature="0"
             id="path3021"
             style="fill:#28170b;font-family:ChunkFive;-inkscape-font-specification:ChunkFive"
             d="m 473.00769,337.61339 0,14.49474 6.02089,0 0,19.84665 c 0.3345,14.27173 0.892,23.41458 17.61669,23.41458 2.56445,0 10.14632,-0.78049 13.49126,-2.11846 l 0,-14.27175 c -2.11846,0.89199 -5.5749,1.89547 -7.02438,1.89547 -4.34842,0 -3.56793,-5.12891 -3.56793,-8.91984 l 0,-19.84665 10.59231,0 0,-14.49474 -10.59231,0 0,-16.8362 -20.51564,6.57839 0,10.25781 -6.02089,0" />
          <path
             inkscape:connector-curvature="0"
             id="path3023"
             style="fill:#28170b;font-family:ChunkFive;-inkscape-font-specification:ChunkFive"
             d="m 517.74977,321.33468 c 0,5.3519 5.01742,11.2613 12.04179,11.2613 7.91635,0 12.26478,-5.12891 12.26478,-11.2613 0,-5.1289 -4.57143,-11.37279 -12.26478,-11.37279 -7.80486,0 -12.04179,6.24389 -12.04179,11.37279 m 28.0975,72.02772 0,-14.60624 -5.3519,0 0,-41.14277 -25.86754,0 0,14.49474 4.68291,0 0,26.64803 -4.68291,0 0,14.60624 31.21944,0" />
          <path
             inkscape:connector-curvature="0"
             id="path3025"
             style="fill:#28170b;font-family:ChunkFive;-inkscape-font-specification:ChunkFive"
             d="m 605.17291,362.81194 0,-25.19855 -13.15677,0 -1.89546,5.35191 c -1.89547,-2.22996 -6.3554,-6.35539 -13.93725,-6.35539 -14.27174,0 -27.42851,8.80836 -27.42851,28.54349 0,19.84663 14.27176,29.76997 30.66195,29.76997 12.04177,0 22.07661,-5.68641 27.31701,-11.3728 l -9.81182,-11.3728 c -3.67944,4.01393 -7.58188,6.46689 -13.49126,6.35539 -7.13587,-0.1115 -11.4843,-5.9094 -11.4843,-13.15676 0,-7.24737 3.23345,-14.27175 9.81183,-14.27175 5.1289,0 6.80137,6.35539 7.02437,11.70729 l 16.39021,0" />
          <path
             inkscape:connector-curvature="0"
             id="path3027"
             style="fill:#28170b;font-family:ChunkFive;-inkscape-font-specification:ChunkFive"
             d="m 609.54919,393.3624 13.93726,0 1.00348,-6.80138 c 2.67595,4.23692 9.03134,8.13935 17.05919,8.13935 10.8153,0 20.73863,-6.2439 20.73863,-16.7247 0,-11.70728 -9.47734,-14.94074 -17.95118,-17.83968 -7.13586,-2.45295 -13.71425,-3.79094 -13.71425,-6.91288 0,-2.78744 2.00696,-4.01393 4.34842,-4.01393 5.5749,0 11.3728,3.79094 11.3728,8.47385 l 14.49474,0 0,-20.06964 -13.71426,0 -0.89198,7.35887 c -2.34146,-4.79441 -9.03135,-8.69684 -16.6132,-8.69684 -7.91635,0 -19.62365,4.79442 -19.62365,16.16721 0,10.4808 7.24737,15.16373 14.82923,17.83968 8.02785,2.78745 16.39021,3.34494 16.39021,6.68988 0,3.12194 -2.67596,3.79093 -4.90591,3.79093 -3.34494,0 -11.81879,-1.56098 -11.81879,-7.47037 l -14.94074,0 0,20.06965" />
        </g>
      </g>
      <g
         style="font-size:79.65174865999999600px;font-style:normal;font-weight:normal;line-height:125%;letter-spacing:0px;word-spacing:0px;fill:#000000;fill-opacity:1;stroke:none;font-family:Sans;filter:url(#filter3886);opacity:0.42081448"
         id="g3860"
         transform="translate(0,440)">
        <path
           d="m 520.2124,368.69826 c 0.0465,2.20533 0.88943,4.16673 2.52891,5.88419 1.63947,1.71747 3.79668,2.6235 6.47162,2.71809 2.99519,-0.0597 5.26855,-0.89607 6.82009,-2.509 1.55151,-1.61293 2.33143,-3.64402 2.33974,-6.09328 -0.0183,-2.15554 -0.81809,-4.17667 -2.39947,-6.06341 -1.58142,-1.88671 -3.83487,-2.8923 -6.76036,-3.01677 -2.91887,0.12447 -5.14577,1.13006 -6.6807,3.01677 -1.53494,1.88674 -2.30822,3.90787 -2.31983,6.06341 z"
           style="fill:#000000;font-family:ChunkFive Roman;-inkscape-font-specification:ChunkFive Roman"
           id="path3862"
           inkscape:connector-curvature="0" />
        <path
           d="m 562.65157,378.01739 c 6.21272,-0.0398 11.3701,-1.85188 15.47215,-5.43616 4.10197,-3.58427 6.1928,-8.70183 6.27249,-15.35268 -0.24065,-6.68565 -2.3879,-11.83308 -6.44175,-15.44228 -4.05392,-3.60913 -9.28763,-5.47097 -15.70115,-5.58551 -5.71329,0.0316 -10.71469,1.82039 -15.0042,5.36647 -4.28953,3.54615 -6.56289,8.66038 -6.8201,15.34272 0.14437,7.04744 2.40446,12.32762 6.78027,15.84054 4.3758,3.51293 9.52322,5.26856 15.44229,5.2669 z m 0,-10.19529 c -1.7092,-0.0431 -3.10972,-1.03213 -4.20158,-2.96699 -1.0919,-1.93484 -1.65609,-4.55667 -1.69258,-7.86551 0.0348,-2.97858 0.56252,-5.44443 1.58306,-7.39756 1.02051,-1.95307 2.32479,-2.9653 3.91284,-3.03668 1.88007,0.10623 3.3171,1.14832 4.3111,3.12629 0.99394,1.97802 1.49508,4.49365 1.50341,7.5469 -0.0117,3.05496 -0.48623,5.56727 -1.42376,7.53695 -0.93758,1.96971 -2.26841,2.98857 -3.99249,3.0566 z"
           style="fill:#000000;font-family:ChunkFive Roman;-inkscape-font-specification:ChunkFive Roman"
           id="path3864"
           inkscape:connector-curvature="0" />
        <path
           d="m 609.82281,376.98193 0,-10.43424 -3.98254,0 0,-8.20403 c 0.0199,-3.43491 0.99561,-5.7846 2.92716,-7.04909 1.93151,-1.26443 4.69937,-1.8618 8.30359,-1.79214 l 0,-14.33713 c -3.97427,0.0565 -6.79855,0.76005 -8.47285,2.11075 -1.67434,1.35078 -2.96535,3.01017 -3.87301,4.97817 l -2.38952,-5.09765 -14.97434,0 0,10.3546 3.42498,0 0,19.03652 -3.50463,0 0,10.43424 z"
           style="fill:#000000;font-family:ChunkFive Roman;-inkscape-font-specification:ChunkFive Roman"
           id="path3866"
           inkscape:connector-curvature="0" />
        <path
           d="m 620.1828,386.30107 c 1.53659,1.50671 3.85973,3.01344 6.96943,4.52018 3.10969,1.50671 6.86654,2.3364 11.27058,2.48908 8.35334,-0.12115 14.58601,-2.12901 18.69801,-6.02358 4.11192,-3.8946 6.16293,-9.18805 6.15302,-15.88037 l 0,-23.81556 4.77904,0 0,-10.43425 -18.95687,0 -1.59302,2.46917 c -0.82972,-0.83297 -1.99793,-1.57638 -3.50463,-2.23022 -1.50675,-0.65376 -3.15286,-0.99891 -4.93834,-1.03546 -6.58282,0.0814 -11.55766,1.94983 -14.92456,5.60542 -3.3669,3.65567 -5.05616,8.61061 -5.06777,14.86482 -0.0597,5.22046 1.41379,9.79373 4.42061,13.71984 3.00681,3.92612 7.90532,5.9904 14.69556,6.19284 2.5488,-0.0929 4.5998,-0.64384 6.15302,-1.65275 1.55316,-1.00891 2.60853,-1.91825 3.16611,-2.72804 l 0,2.70813 c 0.063,1.77554 -0.58081,3.44157 -1.93153,4.99808 -1.35077,1.5565 -3.78675,2.3862 -7.30795,2.48908 -3.11137,-0.11284 -5.94893,-0.76332 -8.51267,-1.95144 -2.56377,-1.18813 -4.34595,-2.23686 -5.34656,-3.1462 z M 636.03329,356.671 c 0.0265,-3.06321 0.5509,-5.47928 1.5731,-7.24822 1.02217,-1.76888 2.38286,-2.67158 4.0821,-2.70812 1.56312,0.0598 2.89727,0.97575 4.00245,2.74795 1.10513,1.77225 1.68259,4.0423 1.7324,6.81014 0.0979,3.17774 -0.41653,5.66351 -1.54323,7.45729 -1.12675,1.79381 -2.49741,2.70648 -4.11197,2.738 -1.77225,-0.10951 -3.16613,-1.14497 -4.18166,-3.10638 -1.01557,-1.96138 -1.5333,-4.1916 -1.55319,-6.69066 z"
           style="fill:#000000;font-family:ChunkFive Roman;-inkscape-font-specification:ChunkFive Roman"
           id="path3868"
           inkscape:connector-curvature="0" />
      </g>
      <g
         transform="translate(-5.7142857,428.57143)"
         id="text3029"
         style="font-size:79.65174866px;font-style:normal;font-weight:normal;line-height:125%;letter-spacing:0px;word-spacing:0px;fill:#d44500;fill-opacity:1;stroke:none;font-family:Sans">
        <path
           inkscape:connector-curvature="0"
           id="path3802"
           style="fill:#d44500;font-family:ChunkFive Roman;-inkscape-font-specification:ChunkFive Roman"
           d="m 520.2124,368.69826 c 0.0465,2.20533 0.88943,4.16673 2.52891,5.88419 1.63947,1.71747 3.79668,2.6235 6.47162,2.71809 2.99519,-0.0597 5.26855,-0.89607 6.82009,-2.509 1.55151,-1.61293 2.33143,-3.64402 2.33974,-6.09328 -0.0183,-2.15554 -0.81809,-4.17667 -2.39947,-6.06341 -1.58142,-1.88671 -3.83487,-2.8923 -6.76036,-3.01677 -2.91887,0.12447 -5.14577,1.13006 -6.6807,3.01677 -1.53494,1.88674 -2.30822,3.90787 -2.31983,6.06341 z" />
        <path
           inkscape:connector-curvature="0"
           id="path3804"
           style="fill:#d44500;font-family:ChunkFive Roman;-inkscape-font-specification:ChunkFive Roman"
           d="m 562.65157,378.01739 c 6.21272,-0.0398 11.3701,-1.85188 15.47215,-5.43616 4.10197,-3.58427 6.1928,-8.70183 6.27249,-15.35268 -0.24065,-6.68565 -2.3879,-11.83308 -6.44175,-15.44228 -4.05392,-3.60913 -9.28763,-5.47097 -15.70115,-5.58551 -5.71329,0.0316 -10.71469,1.82039 -15.0042,5.36647 -4.28953,3.54615 -6.56289,8.66038 -6.8201,15.34272 0.14437,7.04744 2.40446,12.32762 6.78027,15.84054 4.3758,3.51293 9.52322,5.26856 15.44229,5.2669 z m 0,-10.19529 c -1.7092,-0.0431 -3.10972,-1.03213 -4.20158,-2.96699 -1.0919,-1.93484 -1.65609,-4.55667 -1.69258,-7.86551 0.0348,-2.97858 0.56252,-5.44443 1.58306,-7.39756 1.02051,-1.95307 2.32479,-2.9653 3.91284,-3.03668 1.88007,0.10623 3.3171,1.14832 4.3111,3.12629 0.99394,1.97802 1.49508,4.49365 1.50341,7.5469 -0.0117,3.05496 -0.48623,5.56727 -1.42376,7.53695 -0.93758,1.96971 -2.26841,2.98857 -3.99249,3.0566 z" />
        <path
           inkscape:connector-curvature="0"
           id="path3806"
           style="fill:#d44500;font-family:ChunkFive Roman;-inkscape-font-specification:ChunkFive Roman"
           d="m 609.82281,376.98193 0,-10.43424 -3.98254,0 0,-8.20403 c 0.0199,-3.43491 0.99561,-5.7846 2.92716,-7.04909 1.93151,-1.26443 4.69937,-1.8618 8.30359,-1.79214 l 0,-14.33713 c -3.97427,0.0565 -6.79855,0.76005 -8.47285,2.11075 -1.67434,1.35078 -2.96535,3.01017 -3.87301,4.97817 l -2.38952,-5.09765 -14.97434,0 0,10.3546 3.42498,0 0,19.03652 -3.50463,0 0,10.43424 z" />
        <path
           inkscape:connector-curvature="0"
           id="path3808"
           style="fill:#d44500;font-family:ChunkFive Roman;-inkscape-font-specification:ChunkFive Roman"
           d="m 620.1828,386.30107 c 1.53659,1.50671 3.85973,3.01344 6.96943,4.52018 3.10969,1.50671 6.86654,2.3364 11.27058,2.48908 8.35334,-0.12115 14.58601,-2.12901 18.69801,-6.02358 4.11192,-3.8946 6.16293,-9.18805 6.15302,-15.88037 l 0,-23.81556 4.77904,0 0,-10.43425 -18.95687,0 -1.59302,2.46917 c -0.82972,-0.83297 -1.99793,-1.57638 -3.50463,-2.23022 -1.50675,-0.65376 -3.15286,-0.99891 -4.93834,-1.03546 -6.58282,0.0814 -11.55766,1.94983 -14.92456,5.60542 -3.3669,3.65567 -5.05616,8.61061 -5.06777,14.86482 -0.0597,5.22046 1.41379,9.79373 4.42061,13.71984 3.00681,3.92612 7.90532,5.9904 14.69556,6.19284 2.5488,-0.0929 4.5998,-0.64384 6.15302,-1.65275 1.55316,-1.00891 2.60853,-1.91825 3.16611,-2.72804 l 0,2.70813 c 0.063,1.77554 -0.58081,3.44157 -1.93153,4.99808 -1.35077,1.5565 -3.78675,2.3862 -7.30795,2.48908 -3.11137,-0.11284 -5.94893,-0.76332 -8.51267,-1.95144 -2.56377,-1.18813 -4.34595,-2.23686 -5.34656,-3.1462 z M 636.03329,356.671 c 0.0265,-3.06321 0.5509,-5.47928 1.5731,-7.24822 1.02217,-1.76888 2.38286,-2.67158 4.0821,-2.70812 1.56312,0.0598 2.89727,0.97575 4.00245,2.74795 1.10513,1.77225 1.68259,4.0423 1.7324,6.81014 0.0979,3.17774 -0.41653,5.66351 -1.54323,7.45729 -1.12675,1.79381 -2.49741,2.70648 -4.11197,2.738 -1.77225,-0.10951 -3.16613,-1.14497 -4.18166,-3.10638 -1.01557,-1.96138 -1.5333,-4.1916 -1.55319,-6.69066 z" />
      </g>
    </g>
  </g>
</svg>
