<?xml version="1.0" encoding="UTF-8" standalone="no"?>
<!-- Created with Inkscape (http://www.inkscape.org/) -->

<svg
   xmlns:dc="http://purl.org/dc/elements/1.1/"
   xmlns:cc="http://creativecommons.org/ns#"
   xmlns:rdf="http://www.w3.org/1999/02/22-rdf-syntax-ns#"
   xmlns:svg="http://www.w3.org/2000/svg"
   xmlns="http://www.w3.org/2000/svg"
   xmlns:sodipodi="http://sodipodi.sourceforge.net/DTD/sodipodi-0.dtd"
   xmlns:inkscape="http://www.inkscape.org/namespaces/inkscape"
   width="592.43262"
   height="99.424377"
   id="svg12548"
   version="1.1"
   inkscape:version="0.48.0 r9654"
   sodipodi:docname="Nytt dokument 2">
  <defs
     id="defs12550" />
  <sodipodi:namedview
     id="base"
     pagecolor="#ffffff"
     bordercolor="#666666"
     borderopacity="1.0"
     inkscape:pageopacity="0.0"
     inkscape:pageshadow="2"
     inkscape:zoom="0.7"
     inkscape:cx="330.07445"
     inkscape:cy="-34.769991"
     inkscape:document-units="px"
     inkscape:current-layer="layer1"
     showgrid="false"
     fit-margin-top="0"
     fit-margin-left="0"
     fit-margin-right="0"
     fit-margin-bottom="0"
     inkscape:window-width="1280"
     inkscape:window-height="752"
     inkscape:window-x="0"
     inkscape:window-y="25"
     inkscape:window-maximized="1" />
  <metadata
     id="metadata12553">
    <rdf:RDF>
      <cc:Work
         rdf:about="">
        <dc:format>image/svg+xml</dc:format>
        <dc:type
           rdf:resource="http://purl.org/dc/dcmitype/StillImage" />
        <dc:title></dc:title>
      </cc:Work>
    </rdf:RDF>
  </metadata>
  <g
     inkscape:label="Layer 1"
     inkscape:groupmode="layer"
     id="layer1"
     transform="translate(-69.855096,-309.96188)">
    <g
       style="font-size:111.49800873px;font-style:normal;font-weight:normal;fill:#28170b;fill-opacity:1;stroke:none;display:inline;enable-background:new;font-family:Clementine Sketch;-inkscape-font-specification:Clementine Sketch"
       id="text13788"
       transform="matrix(1.1626003,0,0,1.1626003,-107.6882,-50.399904)">
      <path
         d="m 189.50659,368.16385 c -0.44599,-3.34494 -2.34146,-16.61321 -3.56794,-21.96511 l -2.89895,-16.27871 6.46689,0 0,-14.49474 -36.79435,0 0,14.49474 6.24389,0 14.71774,63.44237 25.86754,0 6.80138,-26.75953 c 0.78048,-3.23343 2.22996,-10.25782 2.67595,-13.60275 l 0.44599,0 c 0.55749,3.45643 1.78397,10.03482 2.78745,13.82575 l 6.68988,26.53653 26.42503,0 16.6132,-63.44237 6.13239,0 0,-14.49474 -31.88843,0 0,14.49474 6.13239,0 -3.79093,16.9477 c -1.00348,4.68291 -2.89895,16.27871 -3.34494,21.29612 l -0.55749,0 c -0.55749,-5.5749 -1.78397,-14.71775 -3.34494,-21.96511 l -7.02437,-30.77345 -23.19159,0 -5.5749,25.08705 c -2.22996,10.5923 -5.24041,24.52957 -5.4634,27.65151 l -0.55749,0"
         style="fill:#28170b;font-family:ChunkFive;-inkscape-font-specification:ChunkFive"
         id="path12566"
         inkscape:connector-curvature="0" />
      <path
         d="m 343.55502,315.42529 -74.81516,0 0,28.98948 16.39021,0 0,-14.27174 9.58883,0 0,48.39013 -9.14284,0 0,14.82924 41.47726,0 0,-14.82924 -9.25434,0 0,-48.39013 9.36584,0 0,14.27174 16.3902,0 0,-28.98948"
         style="fill:#28170b;font-family:ChunkFive;-inkscape-font-specification:ChunkFive"
         id="path12568"
         inkscape:connector-curvature="0" />
      <path
         d="m 353.9435,355.23008 c 4.23692,-2.34146 10.03483,-5.12891 16.61321,-5.12891 6.02088,0 10.59231,1.22648 10.59231,6.24389 l 0,3.90243 c -0.55749,-0.66899 -4.45993,-3.90243 -11.03831,-3.90243 -12.59926,0 -23.19158,7.91637 -23.19158,20.51563 0,12.93376 11.37281,18.62017 21.96511,18.62017 4.01392,0 10.92681,-1.44948 15.05223,-7.13587 l 2.67595,5.01741 23.86057,0 0,-14.27175 -6.68988,0 0,-21.74211 c 0,-17.95116 -16.83621,-22.96859 -30.21596,-22.96859 -10.2578,0 -19.84665,5.24041 -24.30656,7.91636 l 4.68291,12.93377 m 27.20552,22.0766 c -1.00348,1.67247 -3.79094,3.67944 -7.13588,3.67944 -3.34493,0 -5.90939,-2.11847 -5.90939,-5.24041 0,-3.45643 2.00697,-5.90939 6.46688,-5.90939 4.68292,0 6.24389,2.67595 6.57839,3.23344 l 0,4.23692"
         style="fill:#28170b;font-family:ChunkFive;-inkscape-font-specification:ChunkFive"
         id="path12570"
         inkscape:connector-curvature="0" />
      <path
         d="m 468.6314,362.81194 0,-25.19855 -13.15676,0 -1.89547,5.35191 c -1.89546,-2.22996 -6.35539,-6.35539 -13.93725,-6.35539 -14.27173,0 -27.42851,8.80836 -27.42851,28.54349 0,19.84663 14.27176,29.76997 30.66195,29.76997 12.04178,0 22.07661,-5.68641 27.31702,-11.3728 l -9.81183,-11.3728 c -3.67943,4.01393 -7.58187,6.46689 -13.49126,6.35539 -7.13586,-0.1115 -11.48429,-5.9094 -11.48429,-13.15676 0,-7.24737 3.23345,-14.27175 9.81182,-14.27175 5.12891,0 6.80138,6.35539 7.02438,11.70729 l 16.3902,0"
         style="fill:#28170b;font-family:ChunkFive;-inkscape-font-specification:ChunkFive"
         id="path12572"
         inkscape:connector-curvature="0" />
      <path
         d="m 473.00769,337.61339 0,14.49474 6.02089,0 0,19.84665 c 0.3345,14.27173 0.892,23.41458 17.61669,23.41458 2.56445,0 10.14632,-0.78049 13.49126,-2.11846 l 0,-14.27175 c -2.11846,0.89199 -5.5749,1.89547 -7.02438,1.89547 -4.34842,0 -3.56793,-5.12891 -3.56793,-8.91984 l 0,-19.84665 10.59231,0 0,-14.49474 -10.59231,0 0,-16.8362 -20.51564,6.57839 0,10.25781 -6.02089,0"
         style="fill:#28170b;font-family:ChunkFive;-inkscape-font-specification:ChunkFive"
         id="path12574"
         inkscape:connector-curvature="0" />
      <path
         d="m 517.74977,321.33468 c 0,5.3519 5.01742,11.2613 12.04179,11.2613 7.91635,0 12.26478,-5.12891 12.26478,-11.2613 0,-5.1289 -4.57143,-11.37279 -12.26478,-11.37279 -7.80486,0 -12.04179,6.24389 -12.04179,11.37279 m 28.0975,72.02772 0,-14.60624 -5.3519,0 0,-41.14277 -25.86754,0 0,14.49474 4.68291,0 0,26.64803 -4.68291,0 0,14.60624 31.21944,0"
         style="fill:#28170b;font-family:ChunkFive;-inkscape-font-specification:ChunkFive"
         id="path12576"
         inkscape:connector-curvature="0" />
      <path
         d="m 605.17291,362.81194 0,-25.19855 -13.15677,0 -1.89546,5.35191 c -1.89547,-2.22996 -6.3554,-6.35539 -13.93725,-6.35539 -14.27174,0 -27.42851,8.80836 -27.42851,28.54349 0,19.84663 14.27176,29.76997 30.66195,29.76997 12.04177,0 22.07661,-5.68641 27.31701,-11.3728 l -9.81182,-11.3728 c -3.67944,4.01393 -7.58188,6.46689 -13.49126,6.35539 -7.13587,-0.1115 -11.4843,-5.9094 -11.4843,-13.15676 0,-7.24737 3.23345,-14.27175 9.81183,-14.27175 5.1289,0 6.80137,6.35539 7.02437,11.70729 l 16.39021,0"
         style="fill:#28170b;font-family:ChunkFive;-inkscape-font-specification:ChunkFive"
         id="path12578"
         inkscape:connector-curvature="0" />
      <path
         d="m 609.54919,393.3624 13.93726,0 1.00348,-6.80138 c 2.67595,4.23692 9.03134,8.13935 17.05919,8.13935 10.8153,0 20.73863,-6.2439 20.73863,-16.7247 0,-11.70728 -9.47734,-14.94074 -17.95118,-17.83968 -7.13586,-2.45295 -13.71425,-3.79094 -13.71425,-6.91288 0,-2.78744 2.00696,-4.01393 4.34842,-4.01393 5.5749,0 11.3728,3.79094 11.3728,8.47385 l 14.49474,0 0,-20.06964 -13.71426,0 -0.89198,7.35887 c -2.34146,-4.79441 -9.03135,-8.69684 -16.6132,-8.69684 -7.91635,0 -19.62365,4.79442 -19.62365,16.16721 0,10.4808 7.24737,15.16373 14.82923,17.83968 8.02785,2.78745 16.39021,3.34494 16.39021,6.68988 0,3.12194 -2.67596,3.79093 -4.90591,3.79093 -3.34494,0 -11.81879,-1.56098 -11.81879,-7.47037 l -14.94074,0 0,20.06965"
         style="fill:#28170b;font-family:ChunkFive;-inkscape-font-specification:ChunkFive"
         id="path12580"
         inkscape:connector-curvature="0" />
    </g>
  </g>
</svg>
