<?xml version="1.0" encoding="UTF-8" standalone="no"?>
<!-- Created with Inkscape (http://www.inkscape.org/) -->

<svg
   xmlns:dc="http://purl.org/dc/elements/1.1/"
   xmlns:cc="http://creativecommons.org/ns#"
   xmlns:rdf="http://www.w3.org/1999/02/22-rdf-syntax-ns#"
   xmlns:svg="http://www.w3.org/2000/svg"
   xmlns="http://www.w3.org/2000/svg"
   xmlns:xlink="http://www.w3.org/1999/xlink"
   xmlns:sodipodi="http://sodipodi.sourceforge.net/DTD/sodipodi-0.dtd"
   xmlns:inkscape="http://www.inkscape.org/namespaces/inkscape"
   width="70"
   height="70"
   id="svg2"
   version="1.1"
   inkscape:version="0.48.0 r9654"
   sodipodi:docname="hold.svg"
   inkscape:export-filename="/var/www/cardscape/images/hold.png"
   inkscape:export-xdpi="90"
   inkscape:export-ydpi="90">
  <defs
     id="defs4">
    <linearGradient
       id="linearGradient3018">
      <stop
         style="stop-color:#e14b00;stop-opacity:1;"
         offset="0"
         id="stop3020" />
      <stop
         style="stop-color:#ffffff;stop-opacity:1;"
         offset="1"
         id="stop3022" />
    </linearGradient>
    <linearGradient
       inkscape:collect="always"
       xlink:href="#linearGradient3018"
       id="linearGradient3024"
       x1="0"
       y1="35.474255"
       x2="95.040649"
       y2="35.094849"
       gradientUnits="userSpaceOnUse" />
  </defs>
  <sodipodi:namedview
     id="base"
     pagecolor="#ffffff"
     bordercolor="#666666"
     borderopacity="1.0"
     inkscape:pageopacity="0.0"
     inkscape:pageshadow="2"
     inkscape:zoom="5.5255344"
     inkscape:cx="35"
     inkscape:cy="35"
     inkscape:document-units="px"
     inkscape:current-layer="layer1"
     showgrid="false"
     inkscape:window-width="1366"
     inkscape:window-height="738"
     inkscape:window-x="0"
     inkscape:window-y="1"
     inkscape:window-maximized="1"
     inkscape:snap-page="true"
     inkscape:snap-global="false" />
  <metadata
     id="metadata7">
    <rdf:RDF>
      <cc:Work
         rdf:about="">
        <dc:format>image/svg+xml</dc:format>
        <dc:type
           rdf:resource="http://purl.org/dc/dcmitype/StillImage" />
        <dc:title></dc:title>
      </cc:Work>
    </rdf:RDF>
  </metadata>
  <g
     inkscape:label="Background"
     inkscape:groupmode="layer"
     id="layer1"
     transform="translate(0,-982.36218)">
    <rect
       style="fill:url(#linearGradient3024);fill-opacity:1;stroke:#000000;stroke-opacity:1"
       id="rect3016"
       width="70"
       height="70"
       x="0"
       y="0"
       transform="translate(0,982.36218)"
       ry="15" />
  </g>
  <g
     inkscape:groupmode="layer"
     id="layer2"
     inkscape:label="Image"
     style="opacity:0.25">
    <path
       inkscape:connector-curvature="0"
       d="m 63.845354,8.0104468 0,0 0,0 0,0 0,0 0,0 0,0 0,0 h -0.002 l 0,0 0,0 0,0 v 0.00131 h 0.0013 l 0,0 0,0 h 6.7e-4 l 0,0 c 0,0 0,0 0,-0.00131 l 0,0 z m -6.71e-4,0.00131 v -0.00131 l 0,0 0,0 0,0 0,0 0,0 0,0 0,0 0,0 v 0.00131 z m 6.71e-4,-0.00131 0,0 c 0,0 0,0 0,0 l 0,0 c 0,0 0,0 0,0 l 0,0 0,0 z m 0,0.00131 v -0.00131 l 0,0 0,0 v 0.00131 z m 0,-0.00131 0,0 0,0 0,0 0,0 z"
       id="path3" />
    <path
       inkscape:connector-curvature="0"
       d="m 61.811768,44.812656 v -15.50526 l -5.723976,-0.310105 v -9.531136 0 c 0,-9.5856679 -9.325722,-17.3829741 -20.788604,-17.3829741 -11.462882,0 -20.788602,7.7973062 -20.788602,17.3829741 v 0 9.531136 l -5.7247633,0.310105 v 15.50526 h 0 v 6.030627 h 0 v 15.505259 l 26.5133653,1.434894 h 0 0 l 26.51258,-1.435551 V 50.842626 h 7.85e-4 l -7.85e-4,-6.02997 0,0 z m -26.51258,-16.94081 0,0 -14.51305,0.785774 v -9.191465 0 c 0,-6.690915 6.510483,-12.134181 14.51305,-12.134181 8.002567,0 14.512266,5.443266 14.512266,12.134181 v 0 9.191465 l -14.512266,-0.785774 0,0 z"
       id="path3-3" />
  </g>
  <g
     inkscape:groupmode="layer"
     id="layer3"
     inkscape:label="Letter"
     style="opacity:1">
    <flowRoot
       xml:space="preserve"
       id="flowRoot3035"
       style="font-size:50px;font-style:normal;font-weight:normal;line-height:125%;letter-spacing:0px;word-spacing:0px;fill:#ececec;fill-opacity:1;stroke:none;font-family:Sans"
       transform="matrix(1.4171613,0,0,1.4171613,5.287058,-17.220395)"><flowRegion
         id="flowRegion3037"><rect
           id="rect3039"
           width="62.98103"
           height="62.601627"
           x="3.4146342"
           y="3.9837399"
           style="font-size:50px;fill:#ececec" /></flowRegion><flowPara
         id="flowPara3041"
         style="font-size:50px;font-style:normal;font-variant:normal;font-weight:bold;font-stretch:normal;fill:#ececec;font-family:Liberation Serif;-inkscape-font-specification:Liberation Serif Bold">R</flowPara></flowRoot>  </g>
</svg>
