<?xml version="1.0" encoding="UTF-8" standalone="no"?>
<!-- Created with Inkscape (http://www.inkscape.org/) -->

<svg
   xmlns:dc="http://purl.org/dc/elements/1.1/"
   xmlns:cc="http://creativecommons.org/ns#"
   xmlns:rdf="http://www.w3.org/1999/02/22-rdf-syntax-ns#"
   xmlns:svg="http://www.w3.org/2000/svg"
   xmlns="http://www.w3.org/2000/svg"
   xmlns:xlink="http://www.w3.org/1999/xlink"
   xmlns:sodipodi="http://sodipodi.sourceforge.net/DTD/sodipodi-0.dtd"
   xmlns:inkscape="http://www.inkscape.org/namespaces/inkscape"
   width="70"
   height="70"
   id="svg2"
   version="1.1"
   inkscape:version="0.48.0 r9654"
   sodipodi:docname="refine.svg"
   inkscape:export-filename="/var/www/cardscape/images/discuss.png"
   inkscape:export-xdpi="90"
   inkscape:export-ydpi="90">
  <defs
     id="defs4">
    <linearGradient
       id="linearGradient3018">
      <stop
         style="stop-color:#646400;stop-opacity:1;"
         offset="0"
         id="stop3020" />
      <stop
         style="stop-color:#ffffff;stop-opacity:1;"
         offset="1"
         id="stop3022" />
    </linearGradient>
    <linearGradient
       inkscape:collect="always"
       xlink:href="#linearGradient3018"
       id="linearGradient3024"
       x1="0"
       y1="35.474255"
       x2="95.040649"
       y2="35.094849"
       gradientUnits="userSpaceOnUse" />
  </defs>
  <sodipodi:namedview
     id="base"
     pagecolor="#ffffff"
     bordercolor="#666666"
     borderopacity="1.0"
     inkscape:pageopacity="0.0"
     inkscape:pageshadow="2"
     inkscape:zoom="5.5255344"
     inkscape:cx="12.196776"
     inkscape:cy="35"
     inkscape:document-units="px"
     inkscape:current-layer="layer3"
     showgrid="false"
     inkscape:window-width="1366"
     inkscape:window-height="738"
     inkscape:window-x="0"
     inkscape:window-y="1"
     inkscape:window-maximized="1"
     inkscape:snap-page="true"
     inkscape:snap-global="false" />
  <metadata
     id="metadata7">
    <rdf:RDF>
      <cc:Work
         rdf:about="">
        <dc:format>image/svg+xml</dc:format>
        <dc:type
           rdf:resource="http://purl.org/dc/dcmitype/StillImage" />
        <dc:title></dc:title>
      </cc:Work>
    </rdf:RDF>
  </metadata>
  <g
     inkscape:label="Background"
     inkscape:groupmode="layer"
     id="layer1"
     transform="translate(0,-982.36218)">
    <rect
       style="fill:url(#linearGradient3024);fill-opacity:1;stroke:#000000;stroke-opacity:1"
       id="rect3016"
       width="70"
       height="70"
       x="0"
       y="0"
       transform="translate(0,982.36218)"
       ry="15" />
  </g>
  <g
     inkscape:groupmode="layer"
     id="layer2"
     inkscape:label="Image"
     style="opacity:0.25">
    <flowRoot
       xml:space="preserve"
       id="flowRoot3026"
       style="font-size:40px;font-style:normal;font-weight:normal;line-height:125%;letter-spacing:0px;word-spacing:0px;fill:#410000;fill-opacity:1;stroke:none;font-family:Sans"
       transform="matrix(0.93263103,0,0,0.93263103,-11.219119,-9.0226475)"><flowRegion
         id="flowRegion3028"><rect
           id="rect3030"
           width="62.222221"
           height="61.463413"
           x="3.7940381"
           y="4.3631434"
           style="fill:#410000;fill-opacity:1" /></flowRegion><flowPara
         id="flowPara3032"
         style="fill:#410000;fill-opacity:1" /></flowRoot>    <g
       id="g3"
       transform="matrix(0.62634798,0,0,0.62634798,3.834196,7.9909689)">
      <path
         inkscape:connector-curvature="0"
         d="M 60.082,20.987 H 39.918 c -3.231,0 -5.851,2.618 -5.851,5.85 v 27.44 c 0,3.231 2.62,5.852 5.851,5.852 h 0.033 v 19.436 c 0,3.231 2.546,5.852 5.689,5.852 h 8.722 c 3.14,0 5.688,-2.62 5.688,-5.852 V 60.129 h 0.032 c 3.231,0 5.851,-2.62 5.851,-5.852 v -27.44 c -0.001,-3.232 -2.62,-5.85 -5.851,-5.85 z"
         id="path5" />
      <circle
         sodipodi:ry="9.5500002"
         sodipodi:rx="9.5500002"
         sodipodi:cy="9.5500002"
         sodipodi:cx="50"
         cx="50"
         cy="9.5500002"
         r="9.5500002"
         id="circle7"
         d="M 59.55,9.5500002 C 59.55,14.82432 55.274319,19.1 50,19.1 44.725681,19.1 40.45,14.82432 40.45,9.5500002 40.45,4.2756807 44.725681,0 50,0 c 5.274319,0 9.55,4.2756807 9.55,9.5500002 z" />
    </g>
    <g
       id="g9"
       transform="matrix(0.62634798,0,0,0.62634798,3.834196,7.9909689)">
      <path
         inkscape:connector-curvature="0"
         d="M 94.986,23.268 H 77.708 c -2.771,0 -5.014,2.245 -5.014,5.014 v 23.514 c 0,2.771 2.243,5.016 5.014,5.016 h 0.028 v 16.654 c 0,2.77 2.182,5.014 4.873,5.014 h 7.475 c 2.691,0 4.874,-2.244 4.874,-5.014 V 56.811 h 0.027 c 2.771,0 5.015,-2.245 5.015,-5.016 V 28.281 c 0,-2.768 -2.244,-5.013 -5.014,-5.013 z"
         id="path11" />
      <circle
         sodipodi:ry="8.184"
         sodipodi:rx="8.184"
         sodipodi:cy="13.469"
         sodipodi:cx="86.347"
         cx="86.347"
         cy="13.469"
         r="8.184"
         id="circle13"
         d="m 94.531,13.469 c 0,4.519898 -3.664101,8.184 -8.184,8.184 -4.519898,0 -8.184,-3.664102 -8.184,-8.184 0,-4.5198985 3.664102,-8.1840002 8.184,-8.1840002 4.519899,0 8.184,3.6641017 8.184,8.1840002 z" />
    </g>
    <g
       id="g15"
       transform="matrix(0.62634798,0,0,0.62634798,3.834196,7.9909689)">
      <path
         inkscape:connector-curvature="0"
         d="M 22.292,23.268 H 5.014 C 2.245,23.268 0,25.513 0,28.281 v 23.514 c 0,2.771 2.245,5.016 5.014,5.016 h 0.028 v 16.654 c 0,2.77 2.184,5.014 4.874,5.014 h 7.474 c 2.692,0 4.874,-2.244 4.874,-5.014 V 56.811 h 0.028 c 2.769,0 5.014,-2.245 5.014,-5.016 V 28.281 C 27.305,25.513 25.06,23.268 22.292,23.268 z"
         id="path17" />
      <circle
         sodipodi:ry="8.1829996"
         sodipodi:rx="8.1829996"
         sodipodi:cy="13.469"
         sodipodi:cx="13.653"
         cx="13.653"
         cy="13.469"
         r="8.1829996"
         id="circle19"
         d="m 21.835999,13.469 c 0,4.519346 -3.663653,8.182999 -8.182999,8.182999 -4.519346,0 -8.1829997,-3.663653 -8.1829997,-8.182999 0,-4.519346 3.6636537,-8.1829997 8.1829997,-8.1829997 4.519346,0 8.182999,3.6636537 8.182999,8.1829997 z" />
    </g>
  </g>
  <g
     inkscape:groupmode="layer"
     id="layer3"
     inkscape:label="Letter"
     style="opacity:1">
    <flowRoot
       xml:space="preserve"
       id="flowRoot3035"
       style="font-size:50px;font-style:normal;font-weight:normal;line-height:125%;letter-spacing:0px;word-spacing:0px;fill:#ececec;fill-opacity:1;stroke:none;font-family:Sans"
       transform="matrix(1.4171613,0,0,1.4171613,6.1919474,-18.125285)"><flowRegion
         id="flowRegion3037"><rect
           id="rect3039"
           width="62.98103"
           height="62.601627"
           x="3.4146342"
           y="3.9837399"
           style="font-size:50px;fill:#ececec" /></flowRegion><flowPara
         id="flowPara3041"
         style="font-size:50px;font-style:normal;font-variant:normal;font-weight:bold;font-stretch:normal;fill:#ececec;font-family:Liberation Serif;-inkscape-font-specification:Liberation Serif Bold">D</flowPara></flowRoot>  </g>
</svg>
