<?xml version="1.0" encoding="UTF-8" standalone="no"?>
<!-- Created with Inkscape (http://www.inkscape.org/) -->

<svg
   xmlns:dc="http://purl.org/dc/elements/1.1/"
   xmlns:cc="http://creativecommons.org/ns#"
   xmlns:rdf="http://www.w3.org/1999/02/22-rdf-syntax-ns#"
   xmlns:svg="http://www.w3.org/2000/svg"
   xmlns="http://www.w3.org/2000/svg"
   xmlns:xlink="http://www.w3.org/1999/xlink"
   xmlns:sodipodi="http://sodipodi.sourceforge.net/DTD/sodipodi-0.dtd"
   xmlns:inkscape="http://www.inkscape.org/namespaces/inkscape"
   width="70"
   height="70"
   id="svg2"
   version="1.1"
   inkscape:version="0.48.0 r9654"
   sodipodi:docname="rejected.svg"
   inkscape:export-filename="/var/www/cardscape/images/rejected.png"
   inkscape:export-xdpi="90"
   inkscape:export-ydpi="90">
  <defs
     id="defs4">
    <linearGradient
       id="linearGradient3018">
      <stop
         style="stop-color:#e10000;stop-opacity:1;"
         offset="0"
         id="stop3020" />
      <stop
         style="stop-color:#ffffff;stop-opacity:1;"
         offset="1"
         id="stop3022" />
    </linearGradient>
    <linearGradient
       inkscape:collect="always"
       xlink:href="#linearGradient3018"
       id="linearGradient3024"
       x1="0"
       y1="35.474255"
       x2="95.040649"
       y2="35.094849"
       gradientUnits="userSpaceOnUse" />
  </defs>
  <sodipodi:namedview
     id="base"
     pagecolor="#ffffff"
     bordercolor="#666666"
     borderopacity="1.0"
     inkscape:pageopacity="0.0"
     inkscape:pageshadow="2"
     inkscape:zoom="5.5255344"
     inkscape:cx="35"
     inkscape:cy="35"
     inkscape:document-units="px"
     inkscape:current-layer="layer3"
     showgrid="false"
     inkscape:window-width="1366"
     inkscape:window-height="738"
     inkscape:window-x="0"
     inkscape:window-y="1"
     inkscape:window-maximized="1"
     inkscape:snap-page="true"
     inkscape:snap-global="false" />
  <metadata
     id="metadata7">
    <rdf:RDF>
      <cc:Work
         rdf:about="">
        <dc:format>image/svg+xml</dc:format>
        <dc:type
           rdf:resource="http://purl.org/dc/dcmitype/StillImage" />
        <dc:title></dc:title>
      </cc:Work>
    </rdf:RDF>
  </metadata>
  <g
     inkscape:label="Background"
     inkscape:groupmode="layer"
     id="layer1"
     transform="translate(0,-982.36218)">
    <rect
       style="fill:url(#linearGradient3024);fill-opacity:1;stroke:#000000;stroke-opacity:1"
       id="rect3016"
       width="70"
       height="70"
       x="0"
       y="0"
       transform="translate(0,982.36218)"
       ry="15" />
  </g>
  <g
     inkscape:groupmode="layer"
     id="layer2"
     inkscape:label="Image"
     style="opacity:0.25">
    <path
       inkscape:connector-curvature="0"
       d="m 44.118755,-20.041139 0,0 0,0 0,0 0,0 0,0 0,0 0,0 h -0.002 l 0,0 0,0 0,0 v 0.0013 h 0.0013 l 0,0 0,0 h 6.7e-4 l 0,0 c 0,0 0,0 0,-0.0013 l 0,0 z m -6.71e-4,0.0013 v -0.0013 l 0,0 0,0 0,0 0,0 0,0 0,0 0,0 0,0 v 0.0013 z m 6.71e-4,-0.0013 0,0 c 0,0 0,0 0,0 l 0,0 c 0,0 0,0 0,0 l 0,0 0,0 z m 0,0.0013 v -0.0013 l 0,0 0,0 v 0.0013 z m 0,-0.0013 0,0 0,0 0,0 0,0 z"
       id="path3" />
    <path
       inkscape:connector-curvature="0"
       d="m 4.2163322,31.787748 c -0.139993,1.066554 -2.107063,2.644247 -2.169572,3.719266 -0.113297,1.953396 2.525741,5.77554 4.339144,6.509366 2.879306,1.164224 17.5121948,0.619227 17.5121948,0.619227 1.430537,2.499044 -2.54853,8.675031 -3.642432,11.338812 -1.604389,3.907444 -1.333518,9.089152 0.698013,11.752936 2.480813,3.253056 7.035482,3.469883 7.128594,2.014603 0.678479,-10.557458 2.699593,-13.48625 5.407,-15.575081 1.624574,-1.252778 3.046646,-2.349935 3.79675,-4.261659 4.610666,-11.74577 8.332537,-14.158865 10.113383,-14.567776 h 1.139481 0.0013 0.336635 V 6.6820506 L 34.901579,4.2025396 c 0,0 -16.973058,-1.60504 -22.316247,0 -1.682525,0.50593 -4.5852718,3.030369 -5.2689598,4.649083 -0.393284,0.929817 0.151062,3.1312944 -0.309939,4.0292054 -0.683689,1.330262 -3.568203,2.995207 -3.564297,4.804051 0.002,1.289242 1.503464,3.519369 1.394725,4.804052 -0.108739,1.285986 -2.792054,3.049903 -2.789449,4.339795 0.002,1.353704 2.344726,3.61769 2.16892,4.959022 z"
       id="path3-8" />
    <path
       inkscape:connector-curvature="0"
       d="m 51.04705,7.7329776 c 0,-1.532765 1.305519,-2.776427 2.915769,-2.776427 h 7.316119 c 1.6109,0 2.915769,1.243662 2.915769,2.776427 V 32.028015 c 0,1.534067 -1.304869,2.777729 -2.915769,2.777729 h -7.31677 c -1.61025,0 -2.91577,-1.243662 -2.91577,-2.777729 V 7.7329776 z"
       id="path5" />
  </g>
  <g
     inkscape:groupmode="layer"
     id="layer3"
     inkscape:label="Letter"
     style="opacity:1">
    <flowRoot
       xml:space="preserve"
       id="flowRoot3035"
       style="font-size:50px;font-style:normal;font-weight:normal;line-height:125%;letter-spacing:0px;word-spacing:0px;fill:#ececec;fill-opacity:1;stroke:none;font-family:Sans"
       transform="matrix(1.4171613,0,0,1.4171613,5.4680364,-17.039417)"><flowRegion
         id="flowRegion3037"><rect
           id="rect3039"
           width="62.98103"
           height="62.601627"
           x="3.4146342"
           y="3.9837399"
           style="font-size:50px;fill:#ececec" /></flowRegion><flowPara
         id="flowPara3041"
         style="font-size:50px;font-style:normal;font-variant:normal;font-weight:bold;font-stretch:normal;fill:#ececec;font-family:Liberation Serif;-inkscape-font-specification:Liberation Serif Bold">X</flowPara></flowRoot>  </g>
</svg>
